<?xml version="1.0" encoding="utf-8"?>
<!-- Generator: Adobe Illustrator 19.0.0, SVG Export Plug-In . SVG Version: 6.00 Build 0)  -->
<svg version="1.1" id="Layer_1" xmlns="http://www.w3.org/2000/svg" xmlns:xlink="http://www.w3.org/1999/xlink" x="0px" y="0px"
	 viewBox="-299 101 360 360" style="enable-background:new -299 101 360 360;" xml:space="preserve">
<style type="text/css">
	.st0{fill:#FFFFFF;}
	.st1{clip-path:url(#SVGID_2_);}
	.st2{clip-path:url(#SVGID_4_);fill:none;}
	.st3{clip-path:url(#SVGID_6_);}
	.st4{stroke:#000000;stroke-width:0.5;stroke-linejoin:round;}
	.st5{clip-path:url(#SVGID_8_);fill:none;}
	.st6{clip-path:url(#SVGID_10_);}
	.st7{clip-path:url(#SVGID_12_);fill:none;}
	.st8{clip-path:url(#SVGID_14_);}
	.st9{clip-path:url(#SVGID_16_);fill:none;}
	.st10{clip-path:url(#SVGID_18_);}
	.st11{clip-path:url(#SVGID_20_);fill:none;}
	.st12{clip-path:url(#SVGID_22_);}
	.st13{fill:none;stroke:#000000;stroke-linejoin:round;}
</style>
<g>
	<g id="patch_2">
		<path class="st0" d="M-247.7,417.1h270v-270h-270V417.1z"/>
	</g>
	<g>
		<g>
			<defs>
				<rect id="SVGID_1_" x="-247.7" y="147.1" width="270" height="270"/>
			</defs>
			<clipPath id="SVGID_2_">
				<use xlink:href="#SVGID_1_"  style="overflow:visible;"/>
			</clipPath>
			<g class="st1">
				
					<image style="overflow:visible;enable-background:new    ;" width="378" height="379" id="image6352265175" xlink:href="4B8A9F06.png"  transform="matrix(0.7162 0 0 0.7162 -247.6619 145.7139)">
				</image>
			</g>
		</g>
	</g>
	<g id="line2d_1">
		<g>
			<g>
				<defs>
					<rect id="SVGID_3_" x="-247.7" y="147.1" width="270" height="270"/>
				</defs>
				<clipPath id="SVGID_4_">
					<use xlink:href="#SVGID_3_"  style="overflow:visible;"/>
				</clipPath>
				<path class="st2" d="M-220.7,390.1v-54v-54v-54v-54"/>
			</g>
		</g>
		<g>
			<g>
				<defs>
					<rect id="SVGID_5_" x="-247.7" y="147.1" width="270" height="270"/>
				</defs>
				<clipPath id="SVGID_6_">
					<use xlink:href="#SVGID_5_"  style="overflow:visible;"/>
				</clipPath>
				<g class="st3">
					<g>
						<path id="m76eb5f4da3" class="st4" d="M-220.7,392.1c0.5,0,1-0.2,1.4-0.6s0.6-0.9,0.6-1.4s-0.2-1-0.6-1.4
							c-0.4-0.4-0.9-0.6-1.4-0.6s-1,0.2-1.4,0.6s-0.6,0.9-0.6,1.4s0.2,1,0.6,1.4C-221.7,391.9-221.2,392.1-220.7,392.1z"/>
					</g>
					<g>
						<path id="m76eb5f4da3_1_" class="st4" d="M-220.7,338.1c0.5,0,1-0.2,1.4-0.6s0.6-0.9,0.6-1.4s-0.2-1-0.6-1.4
							c-0.4-0.4-0.9-0.6-1.4-0.6s-1,0.2-1.4,0.6s-0.6,0.9-0.6,1.4s0.2,1,0.6,1.4C-221.7,337.9-221.2,338.1-220.7,338.1z"/>
					</g>
					<g>
						<path id="m76eb5f4da3_2_" class="st4" d="M-220.7,284.1c0.5,0,1-0.2,1.4-0.6s0.6-0.9,0.6-1.4s-0.2-1-0.6-1.4
							c-0.4-0.4-0.9-0.6-1.4-0.6s-1,0.2-1.4,0.6s-0.6,0.9-0.6,1.4s0.2,1,0.6,1.4C-221.7,283.9-221.2,284.1-220.7,284.1z"/>
					</g>
					<g>
						<path id="m76eb5f4da3_3_" class="st4" d="M-220.7,230.1c0.5,0,1-0.2,1.4-0.6s0.6-0.9,0.6-1.4s-0.2-1-0.6-1.4s-0.9-0.6-1.4-0.6
							s-1,0.2-1.4,0.6s-0.6,0.9-0.6,1.4s0.2,1,0.6,1.4S-221.2,230.1-220.7,230.1z"/>
					</g>
					<g>
						<path id="m76eb5f4da3_4_" class="st4" d="M-220.7,176.1c0.5,0,1-0.2,1.4-0.6s0.6-0.9,0.6-1.4s-0.2-1-0.6-1.4s-0.9-0.6-1.4-0.6
							s-1,0.2-1.4,0.6s-0.6,0.9-0.6,1.4s0.2,1,0.6,1.4S-221.2,176.1-220.7,176.1z"/>
					</g>
				</g>
			</g>
		</g>
	</g>
	<g id="line2d_2">
		<g>
			<g>
				<defs>
					<rect id="SVGID_7_" x="-247.7" y="147.1" width="270" height="270"/>
				</defs>
				<clipPath id="SVGID_8_">
					<use xlink:href="#SVGID_7_"  style="overflow:visible;"/>
				</clipPath>
				<path class="st5" d="M-166.7,390.1v-54v-54v-54v-54"/>
			</g>
		</g>
		<g>
			<g>
				<defs>
					<rect id="SVGID_9_" x="-247.7" y="147.1" width="270" height="270"/>
				</defs>
				<clipPath id="SVGID_10_">
					<use xlink:href="#SVGID_9_"  style="overflow:visible;"/>
				</clipPath>
				<g class="st6">
					<g>
						<path id="m76eb5f4da3_5_" class="st4" d="M-166.7,392.1c0.5,0,1-0.2,1.4-0.6s0.6-0.9,0.6-1.4s-0.2-1-0.6-1.4
							c-0.4-0.4-0.9-0.6-1.4-0.6s-1,0.2-1.4,0.6s-0.6,0.9-0.6,1.4s0.2,1,0.6,1.4C-167.7,391.9-167.2,392.1-166.7,392.1z"/>
					</g>
					<g>
						<path id="m76eb5f4da3_6_" class="st4" d="M-166.7,338.1c0.5,0,1-0.2,1.4-0.6s0.6-0.9,0.6-1.4s-0.2-1-0.6-1.4
							c-0.4-0.4-0.9-0.6-1.4-0.6s-1,0.2-1.4,0.6s-0.6,0.9-0.6,1.4s0.2,1,0.6,1.4C-167.7,337.9-167.2,338.1-166.7,338.1z"/>
					</g>
					<g>
						<path id="m76eb5f4da3_7_" class="st4" d="M-166.7,284.1c0.5,0,1-0.2,1.4-0.6s0.6-0.9,0.6-1.4s-0.2-1-0.6-1.4
							c-0.4-0.4-0.9-0.6-1.4-0.6s-1,0.2-1.4,0.6s-0.6,0.9-0.6,1.4s0.2,1,0.6,1.4C-167.7,283.9-167.2,284.1-166.7,284.1z"/>
					</g>
					<g>
						<path id="m76eb5f4da3_8_" class="st4" d="M-166.7,230.1c0.5,0,1-0.2,1.4-0.6s0.6-0.9,0.6-1.4s-0.2-1-0.6-1.4s-0.9-0.6-1.4-0.6
							s-1,0.2-1.4,0.6s-0.6,0.9-0.6,1.4s0.2,1,0.6,1.4S-167.2,230.1-166.7,230.1z"/>
					</g>
					<g>
						<path id="m76eb5f4da3_9_" class="st4" d="M-166.7,176.1c0.5,0,1-0.2,1.4-0.6s0.6-0.9,0.6-1.4s-0.2-1-0.6-1.4s-0.9-0.6-1.4-0.6
							s-1,0.2-1.4,0.6s-0.6,0.9-0.6,1.4s0.2,1,0.6,1.4S-167.2,176.1-166.7,176.1z"/>
					</g>
				</g>
			</g>
		</g>
	</g>
	<g id="line2d_3">
		<g>
			<g>
				<defs>
					<rect id="SVGID_11_" x="-247.7" y="147.1" width="270" height="270"/>
				</defs>
				<clipPath id="SVGID_12_">
					<use xlink:href="#SVGID_11_"  style="overflow:visible;"/>
				</clipPath>
				<path class="st7" d="M-112.7,390.1v-54v-54v-54v-54"/>
			</g>
		</g>
		<g>
			<g>
				<defs>
					<rect id="SVGID_13_" x="-247.7" y="147.1" width="270" height="270"/>
				</defs>
				<clipPath id="SVGID_14_">
					<use xlink:href="#SVGID_13_"  style="overflow:visible;"/>
				</clipPath>
				<g class="st8">
					<g>
						<path id="m76eb5f4da3_10_" class="st4" d="M-112.7,392.1c0.5,0,1-0.2,1.4-0.6s0.6-0.9,0.6-1.4s-0.2-1-0.6-1.4
							s-0.9-0.6-1.4-0.6s-1,0.2-1.4,0.6s-0.6,0.9-0.6,1.4s0.2,1,0.6,1.4S-113.2,392.1-112.7,392.1z"/>
					</g>
					<g>
						<path id="m76eb5f4da3_11_" class="st4" d="M-112.7,338.1c0.5,0,1-0.2,1.4-0.6s0.6-0.9,0.6-1.4s-0.2-1-0.6-1.4
							s-0.9-0.6-1.4-0.6s-1,0.2-1.4,0.6s-0.6,0.9-0.6,1.4s0.2,1,0.6,1.4S-113.2,338.1-112.7,338.1z"/>
					</g>
					<g>
						<path id="m76eb5f4da3_12_" class="st4" d="M-112.7,284.1c0.5,0,1-0.2,1.4-0.6s0.6-0.9,0.6-1.4s-0.2-1-0.6-1.4
							s-0.9-0.6-1.4-0.6s-1,0.2-1.4,0.6s-0.6,0.9-0.6,1.4s0.2,1,0.6,1.4S-113.2,284.1-112.7,284.1z"/>
					</g>
					<g>
						<path id="m76eb5f4da3_13_" class="st4" d="M-112.7,230.1c0.5,0,1-0.2,1.4-0.6c0.4-0.4,0.6-0.9,0.6-1.4s-0.2-1-0.6-1.4
							s-0.9-0.6-1.4-0.6s-1,0.2-1.4,0.6c-0.4,0.4-0.6,0.9-0.6,1.4s0.2,1,0.6,1.4S-113.2,230.1-112.7,230.1z"/>
					</g>
					<g>
						<path id="m76eb5f4da3_14_" class="st4" d="M-112.7,176.1c0.5,0,1-0.2,1.4-0.6c0.4-0.4,0.6-0.9,0.6-1.4s-0.2-1-0.6-1.4
							s-0.9-0.6-1.4-0.6s-1,0.2-1.4,0.6c-0.4,0.4-0.6,0.9-0.6,1.4s0.2,1,0.6,1.4S-113.2,176.1-112.7,176.1z"/>
					</g>
				</g>
			</g>
		</g>
	</g>
	<g id="line2d_4">
		<g>
			<g>
				<defs>
					<rect id="SVGID_15_" x="-247.7" y="147.1" width="270" height="270"/>
				</defs>
				<clipPath id="SVGID_16_">
					<use xlink:href="#SVGID_15_"  style="overflow:visible;"/>
				</clipPath>
				<path class="st9" d="M-58.7,390.1v-54v-54v-54v-54"/>
			</g>
		</g>
		<g>
			<g>
				<defs>
					<rect id="SVGID_17_" x="-247.7" y="147.1" width="270" height="270"/>
				</defs>
				<clipPath id="SVGID_18_">
					<use xlink:href="#SVGID_17_"  style="overflow:visible;"/>
				</clipPath>
				<g class="st10">
					<g>
						<path id="m76eb5f4da3_15_" class="st4" d="M-58.7,392.1c0.5,0,1-0.2,1.4-0.6s0.6-0.9,0.6-1.4s-0.2-1-0.6-1.4
							c-0.4-0.4-0.9-0.6-1.4-0.6s-1,0.2-1.4,0.6s-0.6,0.9-0.6,1.4s0.2,1,0.6,1.4C-59.7,391.9-59.2,392.1-58.7,392.1z"/>
					</g>
					<g>
						<path id="m76eb5f4da3_16_" class="st4" d="M-58.7,338.1c0.5,0,1-0.2,1.4-0.6s0.6-0.9,0.6-1.4s-0.2-1-0.6-1.4
							c-0.4-0.4-0.9-0.6-1.4-0.6s-1,0.2-1.4,0.6s-0.6,0.9-0.6,1.4s0.2,1,0.6,1.4C-59.7,337.9-59.2,338.1-58.7,338.1z"/>
					</g>
					<g>
						<path id="m76eb5f4da3_17_" class="st4" d="M-58.7,284.1c0.5,0,1-0.2,1.4-0.6s0.6-0.9,0.6-1.4s-0.2-1-0.6-1.4
							c-0.4-0.4-0.9-0.6-1.4-0.6s-1,0.2-1.4,0.6s-0.6,0.9-0.6,1.4s0.2,1,0.6,1.4C-59.7,283.9-59.2,284.1-58.7,284.1z"/>
					</g>
					<g>
						<path id="m76eb5f4da3_18_" class="st4" d="M-58.7,230.1c0.5,0,1-0.2,1.4-0.6c0.4-0.4,0.6-0.9,0.6-1.4s-0.2-1-0.6-1.4
							c-0.4-0.4-0.9-0.6-1.4-0.6s-1,0.2-1.4,0.6c-0.4,0.4-0.6,0.9-0.6,1.4s0.2,1,0.6,1.4C-59.7,229.9-59.2,230.1-58.7,230.1z"/>
					</g>
					<g>
						<path id="m76eb5f4da3_19_" class="st4" d="M-58.7,176.1c0.5,0,1-0.2,1.4-0.6c0.4-0.4,0.6-0.9,0.6-1.4s-0.2-1-0.6-1.4
							c-0.4-0.4-0.9-0.6-1.4-0.6s-1,0.2-1.4,0.6c-0.4,0.4-0.6,0.9-0.6,1.4s0.2,1,0.6,1.4C-59.7,175.9-59.2,176.1-58.7,176.1z"/>
					</g>
				</g>
			</g>
		</g>
	</g>
	<g id="line2d_5">
		<g>
			<g>
				<defs>
					<rect id="SVGID_19_" x="-247.7" y="147.1" width="270" height="270"/>
				</defs>
				<clipPath id="SVGID_20_">
					<use xlink:href="#SVGID_19_"  style="overflow:visible;"/>
				</clipPath>
				<path class="st11" d="M-4.7,390.1v-54v-54v-54v-54"/>
			</g>
		</g>
		<g>
			<g>
				<defs>
					<rect id="SVGID_21_" x="-247.7" y="147.1" width="270" height="270"/>
				</defs>
				<clipPath id="SVGID_22_">
					<use xlink:href="#SVGID_21_"  style="overflow:visible;"/>
				</clipPath>
				<g class="st12">
					<g>
						<path id="m76eb5f4da3_20_" class="st4" d="M-4.7,392.1c0.5,0,1-0.2,1.4-0.6s0.6-0.9,0.6-1.4s-0.2-1-0.6-1.4s-0.9-0.6-1.4-0.6
							s-1,0.2-1.4,0.6s-0.6,0.9-0.6,1.4s0.2,1,0.6,1.4C-5.7,391.9-5.2,392.1-4.7,392.1z"/>
					</g>
					<g>
						<path id="m76eb5f4da3_21_" class="st4" d="M-4.7,338.1c0.5,0,1-0.2,1.4-0.6s0.6-0.9,0.6-1.4s-0.2-1-0.6-1.4s-0.9-0.6-1.4-0.6
							s-1,0.2-1.4,0.6s-0.6,0.9-0.6,1.4s0.2,1,0.6,1.4C-5.7,337.9-5.2,338.1-4.7,338.1z"/>
					</g>
					<g>
						<path id="m76eb5f4da3_22_" class="st4" d="M-4.7,284.1c0.5,0,1-0.2,1.4-0.6s0.6-0.9,0.6-1.4s-0.2-1-0.6-1.4s-0.9-0.6-1.4-0.6
							s-1,0.2-1.4,0.6s-0.6,0.9-0.6,1.4s0.2,1,0.6,1.4C-5.7,283.9-5.2,284.1-4.7,284.1z"/>
					</g>
					<g>
						<path id="m76eb5f4da3_23_" class="st4" d="M-4.7,230.1c0.5,0,1-0.2,1.4-0.6c0.4-0.4,0.6-0.9,0.6-1.4s-0.2-1-0.6-1.4
							s-0.9-0.6-1.4-0.6s-1,0.2-1.4,0.6c-0.4,0.4-0.6,0.9-0.6,1.4s0.2,1,0.6,1.4C-5.7,229.9-5.2,230.1-4.7,230.1z"/>
					</g>
					<g>
						<path id="m76eb5f4da3_24_" class="st4" d="M-4.7,176.1c0.5,0,1-0.2,1.4-0.6c0.4-0.4,0.6-0.9,0.6-1.4s-0.2-1-0.6-1.4
							s-0.9-0.6-1.4-0.6s-1,0.2-1.4,0.6c-0.4,0.4-0.6,0.9-0.6,1.4s0.2,1,0.6,1.4C-5.7,175.9-5.2,176.1-4.7,176.1z"/>
					</g>
				</g>
			</g>
		</g>
	</g>
	<g id="matplotlib.axis_1">
		<g id="xtick_1">
			<g id="line2d_6">
				<g>
					<g>
						<path id="m93b0483c22" class="st4" d="M-220.7,417.1v-4"/>
					</g>
				</g>
			</g>
			<g id="line2d_7">
				<g>
					<g>
						<path id="m741efc42ff" class="st4" d="M-220.7,147.1v4"/>
					</g>
				</g>
			</g>
			<g id="text_1">
				<g transform="translate(67.46484375 314.6771875)scale(0.18 -0.18)">
					<g>
						<path id="DejaVuSans-30" d="M-1594.1-601.1c-5.1,0-8.9-2.5-11.5-7.5s-3.8-12.5-3.8-22.5s1.3-17.5,3.8-22.5
							c2.6-5,6.4-7.5,11.5-7.5s8.9,2.5,11.5,7.5s3.8,12.5,3.8,22.5s-1.3,17.5-3.8,22.5C-1585.2-603.6-1589-601.1-1594.1-601.1
							 M-1594.1-593.3c8.2,0,14.4-3.2,18.7-9.7c4.3-6.5,6.5-15.8,6.5-28.1s-2.2-21.6-6.5-28.1s-10.6-9.7-18.7-9.7
							c-8.2,0-14.4,3.2-18.7,9.7c-4.3,6.5-6.5,15.8-6.5,28.1s2.2,21.7,6.5,28.1C-1608.5-596.5-1602.3-593.3-1594.1-593.3"/>
					</g>
				</g>
			</g>
		</g>
		<g id="xtick_2">
			<g id="line2d_8">
				<g>
					<g>
						<path id="m93b0483c22_1_" class="st4" d="M-166.7,417.1v-4"/>
					</g>
				</g>
			</g>
			<g id="line2d_9">
				<g>
					<g>
						<path id="m741efc42ff_1_" class="st4" d="M-166.7,147.1v4"/>
					</g>
				</g>
			</g>
			<g id="text_2">
				<g transform="translate(122.0934375 314.6771875)scale(0.18 -0.18)">
					<g>
						<path id="DejaVuSans-31" d="M-1613.5-659.2h16.1v55.6l-17.5-3.5v9l17.4,3.5h9.9v-64.6h16.1v-8.3h-42V-659.2z"/>
					</g>
				</g>
			</g>
		</g>
		<g id="xtick_3">
			<g id="line2d_10">
				<g>
					<g>
						<path id="m93b0483c22_2_" class="st4" d="M-112.7,417.1v-4"/>
					</g>
				</g>
			</g>
			<g id="line2d_11">
				<g>
					<g>
						<path id="m741efc42ff_2_" class="st4" d="M-112.7,147.1v4"/>
					</g>
				</g>
			</g>
			<g id="text_3">
				<g transform="translate(175.8346875 314.6771875)scale(0.18 -0.18)">
					<g>
						<path id="DejaVuSans-32" d="M-1606.7-659.2h34.4v-8.3h-46.3v8.3c3.7,3.9,8.8,9.1,15.3,15.6s10.5,10.7,12.2,12.6
							c3.2,3.5,5.4,6.5,6.6,9c1.3,2.5,1.9,4.9,1.9,7.3c0,3.9-1.4,7-4.1,9.5c-2.7,2.4-6.3,3.7-10.6,3.7c-3.1,0-6.4-0.5-9.8-1.6
							s-7.1-2.7-11-4.9v10c4,1.6,7.7,2.8,11.1,3.6c3.5,0.8,6.6,1.2,9.5,1.2c7.6,0,13.6-1.9,18.1-5.7s6.7-8.8,6.7-15.1
							c0-3-0.6-5.8-1.7-8.5s-3.2-5.8-6.1-9.5c-0.8-0.9-3.4-3.7-7.8-8.2C-1592.6-644.8-1598.8-651.1-1606.7-659.2"/>
					</g>
				</g>
			</g>
		</g>
		<g id="xtick_4">
			<g id="line2d_12">
				<g>
					<g>
						<path id="m93b0483c22_3_" class="st4" d="M-58.7,417.1v-4"/>
					</g>
				</g>
			</g>
			<g id="line2d_13">
				<g>
					<g>
						<path id="m741efc42ff_3_" class="st4" d="M-58.7,147.1v4"/>
					</g>
				</g>
			</g>
			<g id="text_4">
				<g transform="translate(229.68140625 314.6771875)scale(0.18 -0.18)">
					<g>
						<path id="DejaVuSans-33" d="M-1585.3-628.2c4.7-1,8.4-3.1,11-6.3c2.7-3.2,4-7.1,4-11.8c0-7.2-2.5-12.8-7.4-16.7
							s-12-5.9-21.1-5.9c-3.1,0-6.2,0.3-9.4,0.9c-3.2,0.6-6.6,1.5-10,2.7v9.5c2.7-1.6,5.7-2.8,9-3.6s6.7-1.2,10.2-1.2
							c6.2,0,10.9,1.2,14.1,3.7s4.9,6,4.9,10.6c0,4.3-1.5,7.7-4.5,10.1c-3,2.4-7.2,3.6-12.6,3.6h-8.5v8.1h8.9c4.8,0,8.6,1,11.1,2.9
							c2.6,1.9,3.9,4.7,3.9,8.4s-1.3,6.6-4,8.6c-2.6,2-6.4,3-11.4,3c-2.7,0-5.6-0.3-8.7-0.9c-3.1-0.6-6.5-1.5-10.2-2.7v8.8
							c3.8,1,7.3,1.8,10.5,2.3s6.4,0.8,9.3,0.8c7.5,0,13.4-1.7,17.8-5.1c4.4-3.4,6.5-8,6.5-13.8c0-4-1.2-7.5-3.5-10.2
							C-1577.8-625.2-1581.1-627.1-1585.3-628.2"/>
					</g>
				</g>
			</g>
		</g>
		<g id="xtick_5">
			<g id="line2d_14">
				<g>
					<g>
						<path id="m93b0483c22_4_" class="st4" d="M-4.7,417.1v-4"/>
					</g>
				</g>
			</g>
			<g id="line2d_15">
				<g>
					<g>
						<path id="m741efc42ff_4_" class="st4" d="M-4.7,147.1v4"/>
					</g>
				</g>
			</g>
			<g id="text_5">
				<g transform="translate(283.21875 314.6771875)scale(0.18 -0.18)">
					<g>
						<path id="DejaVuSans-34" d="M-1588.1-603.2l-24.9-38.9h24.9V-603.2z M-1590.7-594.6h12.4v-47.5h10.4v-8.2h-10.4v-17.2h-9.8
							v17.2h-32.9v9.5L-1590.7-594.6z"/>
					</g>
				</g>
			</g>
		</g>
	</g>
	<g id="matplotlib.axis_2">
		<g id="ytick_1">
			<g id="line2d_16">
				<g>
					<g>
						<path id="m728421d6d4" class="st4" d="M-247.7,390.1h4"/>
					</g>
				</g>
			</g>
			<g id="line2d_17">
				<g>
					<g>
						<path id="mcb0005524f" class="st4" d="M22.3,390.1h-4"/>
					</g>
				</g>
			</g>
			<g id="text_6">
				<g transform="translate(31.9296875 274.966875)scale(0.18 -0.18)">
					<g>
						<path id="DejaVuSans-30_1_" d="M-1594.1-601.1c-5.1,0-8.9-2.5-11.5-7.5s-3.8-12.5-3.8-22.5s1.3-17.5,3.8-22.5
							c2.6-5,6.4-7.5,11.5-7.5s8.9,2.5,11.5,7.5s3.8,12.5,3.8,22.5s-1.3,17.5-3.8,22.5C-1585.2-603.6-1589-601.1-1594.1-601.1
							 M-1594.1-593.3c8.2,0,14.4-3.2,18.7-9.7c4.3-6.5,6.5-15.8,6.5-28.1s-2.2-21.6-6.5-28.1s-10.6-9.7-18.7-9.7
							c-8.2,0-14.4,3.2-18.7,9.7c-4.3,6.5-6.5,15.8-6.5,28.1s2.2,21.7,6.5,28.1C-1608.5-596.5-1602.3-593.3-1594.1-593.3"/>
					</g>
				</g>
			</g>
		</g>
		<g id="ytick_2">
			<g id="line2d_18">
				<g>
					<g>
						<path id="m728421d6d4_1_" class="st4" d="M-247.7,336.1h4"/>
					</g>
				</g>
			</g>
			<g id="line2d_19">
				<g>
					<g>
						<path id="mcb0005524f_1_" class="st4" d="M22.3,336.1h-4"/>
					</g>
				</g>
			</g>
			<g id="text_7">
				<g transform="translate(33.186875 220.966875)scale(0.18 -0.18)">
					<g>
						<path id="DejaVuSans-31_1_" d="M-1613.5-659.2h16.1v55.6l-17.5-3.5v9l17.4,3.5h9.9v-64.6h16.1v-8.3h-42V-659.2z"/>
					</g>
				</g>
			</g>
		</g>
		<g id="ytick_3">
			<g id="line2d_20">
				<g>
					<g>
						<path id="m728421d6d4_2_" class="st4" d="M-247.7,282.1h4"/>
					</g>
				</g>
			</g>
			<g id="line2d_21">
				<g>
					<g>
						<path id="mcb0005524f_2_" class="st4" d="M22.3,282.1h-4"/>
					</g>
				</g>
			</g>
			<g id="text_8">
				<g transform="translate(32.669375 166.966875)scale(0.18 -0.18)">
					<g>
						<path id="DejaVuSans-32_1_" d="M-1606.7-659.2h34.4v-8.3h-46.3v8.3c3.7,3.9,8.8,9.1,15.3,15.6s10.5,10.7,12.2,12.6
							c3.2,3.5,5.4,6.5,6.6,9c1.3,2.5,1.9,4.9,1.9,7.3c0,3.9-1.4,7-4.1,9.5c-2.7,2.4-6.3,3.7-10.6,3.7c-3.1,0-6.4-0.5-9.8-1.6
							s-7.1-2.7-11-4.9v10c4,1.6,7.7,2.8,11.1,3.6c3.5,0.8,6.6,1.2,9.5,1.2c7.6,0,13.6-1.9,18.1-5.7s6.7-8.8,6.7-15.1
							c0-3-0.6-5.8-1.7-8.5s-3.2-5.8-6.1-9.5c-0.8-0.9-3.4-3.7-7.8-8.2C-1592.6-644.8-1598.8-651.1-1606.7-659.2"/>
					</g>
				</g>
			</g>
		</g>
		<g id="ytick_4">
			<g id="line2d_22">
				<g>
					<g>
						<path id="m728421d6d4_3_" class="st4" d="M-247.7,228.1h4"/>
					</g>
				</g>
			</g>
			<g id="line2d_23">
				<g>
					<g>
						<path id="mcb0005524f_3_" class="st4" d="M22.3,228.1h-4"/>
					</g>
				</g>
			</g>
			<g id="text_9">
				<g transform="translate(32.3628125 112.966875)scale(0.18 -0.18)">
					<g>
						<path id="DejaVuSans-33_1_" d="M-1585.3-628.2c4.7-1,8.4-3.1,11-6.3c2.7-3.2,4-7.1,4-11.8c0-7.2-2.5-12.8-7.4-16.7
							s-12-5.9-21.1-5.9c-3.1,0-6.2,0.3-9.4,0.9c-3.2,0.6-6.6,1.5-10,2.7v9.5c2.7-1.6,5.7-2.8,9-3.6s6.7-1.2,10.2-1.2
							c6.2,0,10.9,1.2,14.1,3.7s4.9,6,4.9,10.6c0,4.3-1.5,7.7-4.5,10.1c-3,2.4-7.2,3.6-12.6,3.6h-8.5v8.1h8.9c4.8,0,8.6,1,11.1,2.9
							c2.6,1.9,3.9,4.7,3.9,8.4s-1.3,6.6-4,8.6c-2.6,2-6.4,3-11.4,3c-2.7,0-5.6-0.3-8.7-0.9c-3.1-0.6-6.5-1.5-10.2-2.7v8.8
							c3.8,1,7.3,1.8,10.5,2.3s6.4,0.8,9.3,0.8c7.5,0,13.4-1.7,17.8-5.1c4.4-3.4,6.5-8,6.5-13.8c0-4-1.2-7.5-3.5-10.2
							C-1577.8-625.2-1581.1-627.1-1585.3-628.2"/>
					</g>
				</g>
			</g>
		</g>
		<g id="ytick_5">
			<g id="line2d_24">
				<g>
					<g>
						<path id="m728421d6d4_4_" class="st4" d="M-247.7,174.1h4"/>
					</g>
				</g>
			</g>
			<g id="line2d_25">
				<g>
					<g>
						<path id="mcb0005524f_4_" class="st4" d="M22.3,174.1h-4"/>
					</g>
				</g>
			</g>
			<g id="text_10">
				<g transform="translate(31.4375 58.966875)scale(0.18 -0.18)">
					<g>
						<path id="DejaVuSans-34_1_" d="M-1588.1-603.2l-24.9-38.9h24.9V-603.2z M-1590.7-594.6h12.4v-47.5h10.4v-8.2h-10.4v-17.2h-9.8
							v17.2h-32.9v9.5L-1590.7-594.6z"/>
					</g>
				</g>
			</g>
		</g>
	</g>
	<g id="patch_3">
		<path class="st13" d="M-247.7,147.1h270"/>
	</g>
	<g id="patch_4">
		<path class="st13" d="M22.3,417.1v-270"/>
	</g>
	<g id="patch_5">
		<path class="st13" d="M-247.7,417.1h270"/>
	</g>
	<g id="patch_6">
		<path class="st13" d="M-247.7,417.1v-270"/>
	</g>
	<g id="text_11">
		<g transform="translate(135.18675 22.0)scale(0.216 -0.216)">
			<g>
				<path id="Verdana-Bold-6e" d="M-1291.5-556.2h-17.7v27.2c0,2.2-0.1,4.4-0.3,6.6c-0.2,2.2-0.6,3.8-1.2,4.9
					c-0.6,1.2-1.6,2.1-2.9,2.6c-1.3,0.6-3,0.8-5.3,0.8c-1.6,0-3.2-0.3-4.9-0.8c-1.6-0.5-3.4-1.3-5.3-2.5v-38.9h-17.6v54.8h17.6v-6
					c3.1,2.4,6.1,4.3,9,5.6c2.9,1.3,6.1,2,9.6,2c5.9,0,10.6-1.7,13.9-5.2c3.3-3.4,5-8.6,5-15.5v-35.6H-1291.5z"/>
			</g>
			<g>
				<path id="Verdana-Bold-65" d="M-1221.3-532.1h-40.2c0.3-4.3,1.9-7.6,4.9-9.9c3-2.3,7.4-3.4,13.3-3.4c3.7,0,7.3,0.7,10.8,2
					s6.2,2.8,8.3,4.3h2v-14.1c-4-1.6-7.7-2.7-11.2-3.5c-3.5-0.7-7.4-1.1-11.7-1.1c-11,0-19.4,2.5-25.3,7.4s-8.8,12-8.8,21.1
					s2.8,16.2,8.3,21.5c5.6,5.3,13.2,7.9,22.8,7.9c8.9,0,15.6-2.3,20.1-6.8s6.8-11,6.8-19.5v-5.9H-1221.3z M-1238.8-521.8
					c-0.1,3.7-1,6.4-2.8,8.3c-1.7,1.9-4.4,2.8-8,2.8c-3.4,0-6.2-0.9-8.4-2.6c-2.2-1.8-3.4-4.6-3.7-8.5H-1238.8z"/>
			</g>
			<g>
				<path id="Verdana-Bold-61" d="M-1175.7-541.9v11.4c-2.4-0.2-4.9-0.5-7.7-0.8c-2.8-0.3-4.9-0.7-6.3-1.2c-1.8-0.6-3.1-1.4-4-2.4
					c-0.9-1.1-1.4-2.4-1.4-4.2c0-1.1,0.1-2.1,0.3-2.8c0.2-0.7,0.7-1.4,1.5-2c0.8-0.7,1.6-1.1,2.7-1.5c1-0.3,2.7-0.5,4.9-0.5
					c1.8,0,3.5,0.4,5.3,1.1C-1178.7-544.1-1177.1-543.1-1175.7-541.9 M-1175.7-550.4c-0.9-0.7-2.1-1.6-3.5-2.6s-2.7-1.8-4-2.4
					c-1.7-0.8-3.5-1.4-5.4-1.7c-1.9-0.4-3.9-0.6-6.1-0.6c-5.2,0-9.6,1.6-13.1,4.8s-5.3,7.3-5.3,12.4c0,4,0.9,7.3,2.7,9.8
					c1.8,2.5,4.3,4.5,7.6,6c3.3,1.5,7.3,2.5,12.1,3.1c4.8,0.6,9.8,1.1,15,1.4v0.3c0,3-1.2,5.1-3.7,6.3s-6.1,1.7-10.9,1.7
					c-2.9,0-6-0.5-9.3-1.5s-5.6-1.8-7.1-2.4h-1.6v13.2c1.9,0.5,4.9,1.1,9,1.7c4.2,0.7,8.4,1,12.6,1c10,0,17.2-1.5,21.7-4.6
					c4.4-3.1,6.7-7.9,6.7-14.5v-37.3h-17.4L-1175.7-550.4L-1175.7-550.4z"/>
			</g>
			<g>
				<path id="Verdana-Bold-72" d="M-1102.4-518.2h-1.6c-0.8,0.3-2,0.5-3.6,0.6c-1.7,0.1-3,0.2-4.1,0.2c-2.5,0-4.7-0.2-6.6-0.5
					s-4-0.9-6.2-1.7v-36.7h-17.6v54.8h17.6v-8c3.9,3.3,7.2,5.5,10.1,6.6s5.5,1.6,7.9,1.6c0.6,0,1.3,0,2.1,0c0.8,0,1.5-0.1,2-0.2
					L-1102.4-518.2L-1102.4-518.2z"/>
			</g>
			<g>
				<path id="Verdana-Bold-65_1_" d="M-1038.4-532.1h-40.2c0.3-4.3,1.9-7.6,4.9-9.9c3-2.3,7.4-3.4,13.3-3.4c3.7,0,7.3,0.7,10.8,2
					s6.2,2.8,8.3,4.3h2v-14.1c-4-1.6-7.7-2.7-11.2-3.5c-3.5-0.7-7.4-1.1-11.7-1.1c-11,0-19.4,2.5-25.3,7.4s-8.8,12-8.8,21.1
					s2.8,16.2,8.3,21.5c5.6,5.3,13.2,7.9,22.8,7.9c8.9,0,15.6-2.3,20.1-6.8s6.8-11,6.8-19.5v-5.9H-1038.4z M-1055.9-521.8
					c-0.1,3.7-1,6.4-2.8,8.3c-1.7,1.9-4.4,2.8-8,2.8c-3.4,0-6.2-0.9-8.4-2.6c-2.2-1.8-3.4-4.6-3.7-8.5H-1055.9z"/>
			</g>
			<g>
				<path id="Verdana-Bold-73" d="M-978.4-538.9c0-5.7-2.5-10.2-7.6-13.7s-12-5.2-20.8-5.2c-4.9,0-9.3,0.5-13.3,1.4s-7.2,1.9-9.6,3
					v14.5h1.6c0.9-0.6,1.9-1.3,3-2c1.2-0.7,2.8-1.5,4.9-2.4c1.8-0.8,3.9-1.4,6.2-1.9c2.3-0.5,4.8-0.8,7.4-0.8c3.5,0,6,0.4,7.7,1.1
					c1.7,0.8,2.5,1.9,2.5,3.4c0,1.3-0.5,2.3-1.5,2.9c-1,0.6-2.8,1.2-5.6,1.7c-1.3,0.3-3.1,0.6-5.3,0.9c-2.2,0.3-4.3,0.8-6.1,1.3
					c-5,1.3-8.7,3.3-11.1,6.1s-3.6,6.2-3.6,10.3c0,5.3,2.5,9.7,7.5,13.2s11.8,5.3,20.5,5.3c4.1,0,8-0.4,11.8-1.3
					c3.8-0.8,6.7-1.7,8.8-2.7v-13.9h-1.5c-2.6,1.8-5.6,3.2-8.9,4.4c-3.3,1.1-6.7,1.7-10.1,1.7c-2.8,0-5.2-0.4-7.2-1.2
					c-1.9-0.8-2.9-1.9-2.9-3.3c0-1.3,0.4-2.3,1.3-3c0.9-0.7,2.9-1.4,6.2-2c1.8-0.4,3.7-0.7,5.8-1s4.2-0.8,6.2-1.3
					c4.6-1.2,8-3.1,10.2-5.7C-979.5-531.8-978.4-535-978.4-538.9"/>
			</g>
			<g>
				<path id="Verdana-Bold-74" d="M-931.6-555.8c-1.9-0.5-3.9-0.9-6-1.1c-2.1-0.3-4.7-0.4-7.8-0.4c-6.8,0-11.9,1.4-15.3,4.2
					c-3.3,2.8-5,7.5-5,14.2v25.6h-7.2v11.9h7.2v15.7h17.6v-15.7h16.5v-11.9h-16.5v-19.4c0-1.9,0-3.6,0-5s0.3-2.7,0.8-3.9
					c0.5-1.1,1.3-2,2.4-2.7c1.2-0.7,2.8-1,5-1c0.9,0,2.1,0.2,3.6,0.6c1.5,0.4,2.5,0.8,3.1,1.1h1.5v-12.2H-931.6z"/>
			</g>
		</g>
	</g>
	<g id="matplotlib.axis_4">
	</g>
</g>
</svg>
