<?xml version="1.0" encoding="utf-8"?>
<!-- Generator: Adobe Illustrator 19.0.0, SVG Export Plug-In . SVG Version: 6.00 Build 0)  -->
<svg version="1.1" id="Layer_1" xmlns="http://www.w3.org/2000/svg" xmlns:xlink="http://www.w3.org/1999/xlink" x="0px" y="0px"
	 viewBox="-299 101 360 360" style="enable-background:new -299 101 360 360;" xml:space="preserve">
<style type="text/css">
	.st0{fill:#FFFFFF;}
	.st1{clip-path:url(#SVGID_4_);fill:none;}
	.st2{clip-path:url(#SVGID_6_);}
	.st3{stroke:#000000;stroke-width:0.5;stroke-linejoin:round;}
	.st4{clip-path:url(#SVGID_8_);fill:none;}
	.st5{clip-path:url(#SVGID_10_);}
	.st6{clip-path:url(#SVGID_12_);fill:none;}
	.st7{clip-path:url(#SVGID_14_);}
	.st8{clip-path:url(#SVGID_16_);fill:none;}
	.st9{clip-path:url(#SVGID_18_);}
	.st10{clip-path:url(#SVGID_20_);fill:none;}
	.st11{clip-path:url(#SVGID_22_);}
	.st12{fill:none;stroke:#000000;stroke-linejoin:round;}
</style>
<g>
	<g id="patch_2">
		<path class="st0" d="M-247.7,417.7h270v-270h-270V417.7z"/>
	</g>
	<g>
		<defs>
			<rect id="SVGID_1_" x="-247.7" y="147.7" width="270" height="270"/>
		</defs>
		<clipPath id="SVGID_2_">
			<use xlink:href="#SVGID_1_"  style="overflow:visible;"/>
		</clipPath>
		<g transform="matrix(1 0 0 1 -1.525879e-005 0)" style="clip-path:url(#SVGID_2_);enable-background:new    ;">
			
				<image style="overflow:visible;" width="376" height="377" id="image2fc460cf5a" xlink:href="68051951.png"  transform="matrix(0.72 0 0 0.72 -247.6589 146.2998)">
			</image>
		</g>
	</g>
	<g id="line2d_1">
		<g>
			<defs>
				<rect id="SVGID_3_" x="-247.7" y="147.7" width="270" height="270"/>
			</defs>
			<clipPath id="SVGID_4_">
				<use xlink:href="#SVGID_3_"  style="overflow:visible;"/>
			</clipPath>
			<path class="st1" d="M-220.7,390.7v-54v-54v-54v-54"/>
		</g>
		<g>
			<defs>
				<rect id="SVGID_5_" x="-247.7" y="147.7" width="270" height="270"/>
			</defs>
			<clipPath id="SVGID_6_">
				<use xlink:href="#SVGID_5_"  style="overflow:visible;"/>
			</clipPath>
			<g class="st2">
				<g>
					<path id="m76eb5f4da3" class="st3" d="M-220.7,392.7c0.5,0,1-0.2,1.4-0.6s0.6-0.9,0.6-1.4c0-0.5-0.2-1-0.6-1.4
						s-0.9-0.6-1.4-0.6s-1,0.2-1.4,0.6s-0.6,0.9-0.6,1.4c0,0.5,0.2,1,0.6,1.4S-221.2,392.7-220.7,392.7z"/>
				</g>
				<g>
					<path id="m76eb5f4da3_1_" class="st3" d="M-220.7,338.7c0.5,0,1-0.2,1.4-0.6s0.6-0.9,0.6-1.4c0-0.5-0.2-1-0.6-1.4
						s-0.9-0.6-1.4-0.6s-1,0.2-1.4,0.6s-0.6,0.9-0.6,1.4c0,0.5,0.2,1,0.6,1.4S-221.2,338.7-220.7,338.7z"/>
				</g>
				<g>
					<path id="m76eb5f4da3_2_" class="st3" d="M-220.7,284.7c0.5,0,1-0.2,1.4-0.6s0.6-0.9,0.6-1.4c0-0.5-0.2-1-0.6-1.4
						s-0.9-0.6-1.4-0.6s-1,0.2-1.4,0.6s-0.6,0.9-0.6,1.4c0,0.5,0.2,1,0.6,1.4S-221.2,284.7-220.7,284.7z"/>
				</g>
				<g>
					<path id="m76eb5f4da3_3_" class="st3" d="M-220.7,230.7c0.5,0,1-0.2,1.4-0.6c0.4-0.4,0.6-0.9,0.6-1.4c0-0.5-0.2-1-0.6-1.4
						c-0.4-0.4-0.9-0.6-1.4-0.6s-1,0.2-1.4,0.6c-0.4,0.4-0.6,0.9-0.6,1.4c0,0.5,0.2,1,0.6,1.4C-221.7,230.5-221.2,230.7-220.7,230.7
						z"/>
				</g>
				<g>
					<path id="m76eb5f4da3_4_" class="st3" d="M-220.7,176.7c0.5,0,1-0.2,1.4-0.6c0.4-0.4,0.6-0.9,0.6-1.4c0-0.5-0.2-1-0.6-1.4
						c-0.4-0.4-0.9-0.6-1.4-0.6s-1,0.2-1.4,0.6c-0.4,0.4-0.6,0.9-0.6,1.4c0,0.5,0.2,1,0.6,1.4C-221.7,176.5-221.2,176.7-220.7,176.7
						z"/>
				</g>
			</g>
		</g>
	</g>
	<g id="line2d_2">
		<g>
			<defs>
				<rect id="SVGID_7_" x="-247.7" y="147.7" width="270" height="270"/>
			</defs>
			<clipPath id="SVGID_8_">
				<use xlink:href="#SVGID_7_"  style="overflow:visible;"/>
			</clipPath>
			<path class="st4" d="M-166.7,390.7v-54v-54v-54v-54"/>
		</g>
		<g>
			<defs>
				<rect id="SVGID_9_" x="-247.7" y="147.7" width="270" height="270"/>
			</defs>
			<clipPath id="SVGID_10_">
				<use xlink:href="#SVGID_9_"  style="overflow:visible;"/>
			</clipPath>
			<g class="st5">
				<g>
					<path id="m76eb5f4da3_5_" class="st3" d="M-166.7,392.7c0.5,0,1-0.2,1.4-0.6s0.6-0.9,0.6-1.4c0-0.5-0.2-1-0.6-1.4
						s-0.9-0.6-1.4-0.6s-1,0.2-1.4,0.6s-0.6,0.9-0.6,1.4c0,0.5,0.2,1,0.6,1.4S-167.2,392.7-166.7,392.7z"/>
				</g>
				<g>
					<path id="m76eb5f4da3_6_" class="st3" d="M-166.7,338.7c0.5,0,1-0.2,1.4-0.6s0.6-0.9,0.6-1.4c0-0.5-0.2-1-0.6-1.4
						s-0.9-0.6-1.4-0.6s-1,0.2-1.4,0.6s-0.6,0.9-0.6,1.4c0,0.5,0.2,1,0.6,1.4S-167.2,338.7-166.7,338.7z"/>
				</g>
				<g>
					<path id="m76eb5f4da3_7_" class="st3" d="M-166.7,284.7c0.5,0,1-0.2,1.4-0.6s0.6-0.9,0.6-1.4c0-0.5-0.2-1-0.6-1.4
						s-0.9-0.6-1.4-0.6s-1,0.2-1.4,0.6s-0.6,0.9-0.6,1.4c0,0.5,0.2,1,0.6,1.4S-167.2,284.7-166.7,284.7z"/>
				</g>
				<g>
					<path id="m76eb5f4da3_8_" class="st3" d="M-166.7,230.7c0.5,0,1-0.2,1.4-0.6c0.4-0.4,0.6-0.9,0.6-1.4c0-0.5-0.2-1-0.6-1.4
						c-0.4-0.4-0.9-0.6-1.4-0.6s-1,0.2-1.4,0.6c-0.4,0.4-0.6,0.9-0.6,1.4c0,0.5,0.2,1,0.6,1.4C-167.7,230.5-167.2,230.7-166.7,230.7
						z"/>
				</g>
				<g>
					<path id="m76eb5f4da3_9_" class="st3" d="M-166.7,176.7c0.5,0,1-0.2,1.4-0.6c0.4-0.4,0.6-0.9,0.6-1.4c0-0.5-0.2-1-0.6-1.4
						c-0.4-0.4-0.9-0.6-1.4-0.6s-1,0.2-1.4,0.6c-0.4,0.4-0.6,0.9-0.6,1.4c0,0.5,0.2,1,0.6,1.4C-167.7,176.5-167.2,176.7-166.7,176.7
						z"/>
				</g>
			</g>
		</g>
	</g>
	<g id="line2d_3">
		<g>
			<defs>
				<rect id="SVGID_11_" x="-247.7" y="147.7" width="270" height="270"/>
			</defs>
			<clipPath id="SVGID_12_">
				<use xlink:href="#SVGID_11_"  style="overflow:visible;"/>
			</clipPath>
			<path class="st6" d="M-112.7,390.7v-54v-54v-54v-54"/>
		</g>
		<g>
			<defs>
				<rect id="SVGID_13_" x="-247.7" y="147.7" width="270" height="270"/>
			</defs>
			<clipPath id="SVGID_14_">
				<use xlink:href="#SVGID_13_"  style="overflow:visible;"/>
			</clipPath>
			<g class="st7">
				<g>
					<path id="m76eb5f4da3_10_" class="st3" d="M-112.7,392.7c0.5,0,1-0.2,1.4-0.6c0.4-0.4,0.6-0.9,0.6-1.4c0-0.5-0.2-1-0.6-1.4
						c-0.4-0.4-0.9-0.6-1.4-0.6s-1,0.2-1.4,0.6c-0.4,0.4-0.6,0.9-0.6,1.4c0,0.5,0.2,1,0.6,1.4C-113.7,392.5-113.2,392.7-112.7,392.7
						z"/>
				</g>
				<g>
					<path id="m76eb5f4da3_11_" class="st3" d="M-112.7,338.7c0.5,0,1-0.2,1.4-0.6c0.4-0.4,0.6-0.9,0.6-1.4c0-0.5-0.2-1-0.6-1.4
						c-0.4-0.4-0.9-0.6-1.4-0.6s-1,0.2-1.4,0.6c-0.4,0.4-0.6,0.9-0.6,1.4c0,0.5,0.2,1,0.6,1.4C-113.7,338.5-113.2,338.7-112.7,338.7
						z"/>
				</g>
				<g>
					<path id="m76eb5f4da3_12_" class="st3" d="M-112.7,284.7c0.5,0,1-0.2,1.4-0.6c0.4-0.4,0.6-0.9,0.6-1.4c0-0.5-0.2-1-0.6-1.4
						c-0.4-0.4-0.9-0.6-1.4-0.6s-1,0.2-1.4,0.6c-0.4,0.4-0.6,0.9-0.6,1.4c0,0.5,0.2,1,0.6,1.4C-113.7,284.5-113.2,284.7-112.7,284.7
						z"/>
				</g>
				<g>
					<path id="m76eb5f4da3_13_" class="st3" d="M-112.7,230.7c0.5,0,1-0.2,1.4-0.6c0.4-0.4,0.6-0.9,0.6-1.4c0-0.5-0.2-1-0.6-1.4
						c-0.4-0.4-0.9-0.6-1.4-0.6s-1,0.2-1.4,0.6c-0.4,0.4-0.6,0.9-0.6,1.4c0,0.5,0.2,1,0.6,1.4C-113.7,230.5-113.2,230.7-112.7,230.7
						z"/>
				</g>
				<g>
					<path id="m76eb5f4da3_14_" class="st3" d="M-112.7,176.7c0.5,0,1-0.2,1.4-0.6c0.4-0.4,0.6-0.9,0.6-1.4c0-0.5-0.2-1-0.6-1.4
						c-0.4-0.4-0.9-0.6-1.4-0.6s-1,0.2-1.4,0.6c-0.4,0.4-0.6,0.9-0.6,1.4c0,0.5,0.2,1,0.6,1.4C-113.7,176.5-113.2,176.7-112.7,176.7
						z"/>
				</g>
			</g>
		</g>
	</g>
	<g id="line2d_4">
		<g>
			<defs>
				<rect id="SVGID_15_" x="-247.7" y="147.7" width="270" height="270"/>
			</defs>
			<clipPath id="SVGID_16_">
				<use xlink:href="#SVGID_15_"  style="overflow:visible;"/>
			</clipPath>
			<path class="st8" d="M-58.7,390.7v-54v-54v-54v-54"/>
		</g>
		<g>
			<defs>
				<rect id="SVGID_17_" x="-247.7" y="147.7" width="270" height="270"/>
			</defs>
			<clipPath id="SVGID_18_">
				<use xlink:href="#SVGID_17_"  style="overflow:visible;"/>
			</clipPath>
			<g class="st9">
				<g>
					<path id="m76eb5f4da3_15_" class="st3" d="M-58.7,392.7c0.5,0,1-0.2,1.4-0.6c0.4-0.4,0.6-0.9,0.6-1.4c0-0.5-0.2-1-0.6-1.4
						c-0.4-0.4-0.9-0.6-1.4-0.6s-1,0.2-1.4,0.6c-0.4,0.4-0.6,0.9-0.6,1.4c0,0.5,0.2,1,0.6,1.4C-59.7,392.5-59.2,392.7-58.7,392.7z"
						/>
				</g>
				<g>
					<path id="m76eb5f4da3_16_" class="st3" d="M-58.7,338.7c0.5,0,1-0.2,1.4-0.6c0.4-0.4,0.6-0.9,0.6-1.4c0-0.5-0.2-1-0.6-1.4
						c-0.4-0.4-0.9-0.6-1.4-0.6s-1,0.2-1.4,0.6c-0.4,0.4-0.6,0.9-0.6,1.4c0,0.5,0.2,1,0.6,1.4C-59.7,338.5-59.2,338.7-58.7,338.7z"
						/>
				</g>
				<g>
					<path id="m76eb5f4da3_17_" class="st3" d="M-58.7,284.7c0.5,0,1-0.2,1.4-0.6c0.4-0.4,0.6-0.9,0.6-1.4c0-0.5-0.2-1-0.6-1.4
						c-0.4-0.4-0.9-0.6-1.4-0.6s-1,0.2-1.4,0.6c-0.4,0.4-0.6,0.9-0.6,1.4c0,0.5,0.2,1,0.6,1.4C-59.7,284.5-59.2,284.7-58.7,284.7z"
						/>
				</g>
				<g>
					<path id="m76eb5f4da3_18_" class="st3" d="M-58.7,230.7c0.5,0,1-0.2,1.4-0.6c0.4-0.4,0.6-0.9,0.6-1.4c0-0.5-0.2-1-0.6-1.4
						c-0.4-0.4-0.9-0.6-1.4-0.6s-1,0.2-1.4,0.6c-0.4,0.4-0.6,0.9-0.6,1.4c0,0.5,0.2,1,0.6,1.4C-59.7,230.5-59.2,230.7-58.7,230.7z"
						/>
				</g>
				<g>
					<path id="m76eb5f4da3_19_" class="st3" d="M-58.7,176.7c0.5,0,1-0.2,1.4-0.6c0.4-0.4,0.6-0.9,0.6-1.4c0-0.5-0.2-1-0.6-1.4
						c-0.4-0.4-0.9-0.6-1.4-0.6s-1,0.2-1.4,0.6c-0.4,0.4-0.6,0.9-0.6,1.4c0,0.5,0.2,1,0.6,1.4C-59.7,176.5-59.2,176.7-58.7,176.7z"
						/>
				</g>
			</g>
		</g>
	</g>
	<g id="line2d_5">
		<g>
			<defs>
				<rect id="SVGID_19_" x="-247.7" y="147.7" width="270" height="270"/>
			</defs>
			<clipPath id="SVGID_20_">
				<use xlink:href="#SVGID_19_"  style="overflow:visible;"/>
			</clipPath>
			<path class="st10" d="M-4.7,390.7v-54v-54v-54v-54"/>
		</g>
		<g>
			<defs>
				<rect id="SVGID_21_" x="-247.7" y="147.7" width="270" height="270"/>
			</defs>
			<clipPath id="SVGID_22_">
				<use xlink:href="#SVGID_21_"  style="overflow:visible;"/>
			</clipPath>
			<g class="st11">
				<g>
					<path id="m76eb5f4da3_20_" class="st3" d="M-4.7,392.7c0.5,0,1-0.2,1.4-0.6c0.4-0.4,0.6-0.9,0.6-1.4c0-0.5-0.2-1-0.6-1.4
						c-0.4-0.4-0.9-0.6-1.4-0.6s-1,0.2-1.4,0.6c-0.4,0.4-0.6,0.9-0.6,1.4c0,0.5,0.2,1,0.6,1.4C-5.7,392.5-5.2,392.7-4.7,392.7z"/>
				</g>
				<g>
					<path id="m76eb5f4da3_21_" class="st3" d="M-4.7,338.7c0.5,0,1-0.2,1.4-0.6c0.4-0.4,0.6-0.9,0.6-1.4c0-0.5-0.2-1-0.6-1.4
						c-0.4-0.4-0.9-0.6-1.4-0.6s-1,0.2-1.4,0.6c-0.4,0.4-0.6,0.9-0.6,1.4c0,0.5,0.2,1,0.6,1.4C-5.7,338.5-5.2,338.7-4.7,338.7z"/>
				</g>
				<g>
					<path id="m76eb5f4da3_22_" class="st3" d="M-4.7,284.7c0.5,0,1-0.2,1.4-0.6c0.4-0.4,0.6-0.9,0.6-1.4c0-0.5-0.2-1-0.6-1.4
						c-0.4-0.4-0.9-0.6-1.4-0.6s-1,0.2-1.4,0.6c-0.4,0.4-0.6,0.9-0.6,1.4c0,0.5,0.2,1,0.6,1.4C-5.7,284.5-5.2,284.7-4.7,284.7z"/>
				</g>
				<g>
					<path id="m76eb5f4da3_23_" class="st3" d="M-4.7,230.7c0.5,0,1-0.2,1.4-0.6c0.4-0.4,0.6-0.9,0.6-1.4c0-0.5-0.2-1-0.6-1.4
						c-0.4-0.4-0.9-0.6-1.4-0.6s-1,0.2-1.4,0.6c-0.4,0.4-0.6,0.9-0.6,1.4c0,0.5,0.2,1,0.6,1.4C-5.7,230.5-5.2,230.7-4.7,230.7z"/>
				</g>
				<g>
					<path id="m76eb5f4da3_24_" class="st3" d="M-4.7,176.7c0.5,0,1-0.2,1.4-0.6c0.4-0.4,0.6-0.9,0.6-1.4c0-0.5-0.2-1-0.6-1.4
						c-0.4-0.4-0.9-0.6-1.4-0.6s-1,0.2-1.4,0.6c-0.4,0.4-0.6,0.9-0.6,1.4c0,0.5,0.2,1,0.6,1.4C-5.7,176.5-5.2,176.7-4.7,176.7z"/>
				</g>
			</g>
		</g>
	</g>
	<g id="matplotlib.axis_1">
		<g id="xtick_1">
			<g id="line2d_6">
				<g>
					<g>
						<path id="m93b0483c22" class="st3" d="M-220.7,417.7v-4"/>
					</g>
				</g>
			</g>
			<g id="line2d_7">
				<g>
					<g>
						<path id="m741efc42ff" class="st3" d="M-220.7,147.7v4"/>
					</g>
				</g>
			</g>
			<g id="text_1">
				<g transform="translate(67.46484375 314.6771875)scale(0.18 -0.18)">
					<g>
						<path id="DejaVuSans-30" d="M-1594.1-604.4c-5.1,0-8.9-2.5-11.5-7.5c-2.6-5-3.8-12.5-3.8-22.5c0-10,1.3-17.5,3.8-22.5
							c2.6-5,6.4-7.5,11.5-7.5c5.1,0,8.9,2.5,11.5,7.5c2.6,5,3.8,12.5,3.8,22.5c0,10-1.3,17.5-3.8,22.5
							C-1585.2-606.9-1589-604.4-1594.1-604.4 M-1594.1-596.6c8.2,0,14.4-3.2,18.7-9.7c4.3-6.5,6.5-15.8,6.5-28.1
							c0-12.3-2.2-21.6-6.5-28.1c-4.3-6.5-10.6-9.7-18.7-9.7c-8.2,0-14.4,3.2-18.7,9.7c-4.3,6.5-6.5,15.8-6.5,28.1
							c0,12.3,2.2,21.7,6.5,28.1C-1608.5-599.8-1602.3-596.6-1594.1-596.6"/>
					</g>
				</g>
			</g>
		</g>
		<g id="xtick_2">
			<g id="line2d_8">
				<g>
					<g>
						<path id="m93b0483c22_1_" class="st3" d="M-166.7,417.7v-4"/>
					</g>
				</g>
			</g>
			<g id="line2d_9">
				<g>
					<g>
						<path id="m741efc42ff_1_" class="st3" d="M-166.7,147.7v4"/>
					</g>
				</g>
			</g>
			<g id="text_2">
				<g transform="translate(122.0934375 314.6771875)scale(0.18 -0.18)">
					<g>
						<path id="DejaVuSans-31" d="M-1613.5-662.5h16.1v55.6l-17.5-3.5v9l17.4,3.5h9.9v-64.6h16.1v-8.3h-42V-662.5z"/>
					</g>
				</g>
			</g>
		</g>
		<g id="xtick_3">
			<g id="line2d_10">
				<g>
					<g>
						<path id="m93b0483c22_2_" class="st3" d="M-112.7,417.7v-4"/>
					</g>
				</g>
			</g>
			<g id="line2d_11">
				<g>
					<g>
						<path id="m741efc42ff_2_" class="st3" d="M-112.7,147.7v4"/>
					</g>
				</g>
			</g>
			<g id="text_3">
				<g transform="translate(175.8346875 314.6771875)scale(0.18 -0.18)">
					<g>
						<path id="DejaVuSans-32" d="M-1606.7-662.5h34.4v-8.3h-46.3v8.3c3.7,3.9,8.8,9.1,15.3,15.6c6.5,6.5,10.5,10.7,12.2,12.6
							c3.2,3.5,5.4,6.5,6.6,9c1.3,2.5,1.9,4.9,1.9,7.3c0,3.9-1.4,7-4.1,9.5c-2.7,2.4-6.3,3.7-10.6,3.7c-3.1,0-6.4-0.5-9.8-1.6
							c-3.4-1.1-7.1-2.7-11-4.9v10c4,1.6,7.7,2.8,11.1,3.6c3.5,0.8,6.6,1.2,9.5,1.2c7.6,0,13.6-1.9,18.1-5.7
							c4.5-3.8,6.7-8.8,6.7-15.1c0-3-0.6-5.8-1.7-8.5c-1.1-2.7-3.2-5.8-6.1-9.5c-0.8-0.9-3.4-3.7-7.8-8.2
							C-1592.6-648.1-1598.7-654.4-1606.7-662.5"/>
					</g>
				</g>
			</g>
		</g>
		<g id="xtick_4">
			<g id="line2d_12">
				<g>
					<g>
						<path id="m93b0483c22_3_" class="st3" d="M-58.7,417.7v-4"/>
					</g>
				</g>
			</g>
			<g id="line2d_13">
				<g>
					<g>
						<path id="m741efc42ff_3_" class="st3" d="M-58.7,147.7v4"/>
					</g>
				</g>
			</g>
			<g id="text_4">
				<g transform="translate(229.68140625 314.6771875)scale(0.18 -0.18)">
					<g>
						<path id="DejaVuSans-33" d="M-1585.3-631.5c4.7-1,8.4-3.1,11-6.3c2.7-3.2,4-7.1,4-11.8c0-7.2-2.5-12.8-7.4-16.7
							c-4.9-3.9-12-5.9-21.1-5.9c-3.1,0-6.2,0.3-9.4,0.9c-3.2,0.6-6.6,1.5-10,2.7v9.5c2.7-1.6,5.7-2.8,9-3.6
							c3.3-0.8,6.7-1.2,10.2-1.2c6.2,0,10.9,1.2,14.1,3.7c3.2,2.4,4.9,6,4.9,10.6c0,4.3-1.5,7.7-4.5,10.1c-3,2.4-7.2,3.6-12.6,3.6
							h-8.5v8.1h8.9c4.8,0,8.6,1,11.1,2.9c2.6,1.9,3.9,4.7,3.9,8.4c0,3.7-1.3,6.6-4,8.6c-2.6,2-6.4,3-11.4,3c-2.7,0-5.6-0.3-8.7-0.9
							c-3.1-0.6-6.5-1.5-10.2-2.7v8.8c3.8,1,7.3,1.8,10.5,2.3s6.4,0.8,9.3,0.8c7.5,0,13.4-1.7,17.8-5.1c4.4-3.4,6.5-8,6.5-13.8
							c0-4-1.2-7.5-3.5-10.2C-1577.8-628.5-1581-630.4-1585.3-631.5"/>
					</g>
				</g>
			</g>
		</g>
		<g id="xtick_5">
			<g id="line2d_14">
				<g>
					<g>
						<path id="m93b0483c22_4_" class="st3" d="M-4.7,417.7v-4"/>
					</g>
				</g>
			</g>
			<g id="line2d_15">
				<g>
					<g>
						<path id="m741efc42ff_4_" class="st3" d="M-4.7,147.7v4"/>
					</g>
				</g>
			</g>
			<g id="text_5">
				<g transform="translate(283.21875 314.6771875)scale(0.18 -0.18)">
					<g>
						<path id="DejaVuSans-34" d="M-1588.1-606.5l-24.9-38.9h24.9V-606.5z M-1590.7-597.9h12.4v-47.5h10.4v-8.2h-10.4v-17.2h-9.8
							v17.2h-32.9v9.5L-1590.7-597.9z"/>
					</g>
				</g>
			</g>
		</g>
	</g>
	<g id="matplotlib.axis_2">
		<g id="ytick_1">
			<g id="line2d_16">
				<g>
					<g>
						<path id="m728421d6d4" class="st3" d="M-247.7,390.7h4"/>
					</g>
				</g>
			</g>
			<g id="line2d_17">
				<g>
					<g>
						<path id="mcb0005524f" class="st3" d="M22.3,390.7h-4"/>
					</g>
				</g>
			</g>
			<g id="text_6">
				<g transform="translate(31.9296875 274.966875)scale(0.18 -0.18)">
					<g>
						<path id="DejaVuSans-30_1_" d="M-1594.1-604.4c-5.1,0-8.9-2.5-11.5-7.5c-2.6-5-3.8-12.5-3.8-22.5c0-10,1.3-17.5,3.8-22.5
							c2.6-5,6.4-7.5,11.5-7.5c5.1,0,8.9,2.5,11.5,7.5c2.6,5,3.8,12.5,3.8,22.5c0,10-1.3,17.5-3.8,22.5
							C-1585.2-606.9-1589-604.4-1594.1-604.4 M-1594.1-596.6c8.2,0,14.4-3.2,18.7-9.7c4.3-6.5,6.5-15.8,6.5-28.1
							c0-12.3-2.2-21.6-6.5-28.1c-4.3-6.5-10.6-9.7-18.7-9.7c-8.2,0-14.4,3.2-18.7,9.7c-4.3,6.5-6.5,15.8-6.5,28.1
							c0,12.3,2.2,21.7,6.5,28.1C-1608.5-599.8-1602.3-596.6-1594.1-596.6"/>
					</g>
				</g>
			</g>
		</g>
		<g id="ytick_2">
			<g id="line2d_18">
				<g>
					<g>
						<path id="m728421d6d4_1_" class="st3" d="M-247.7,336.7h4"/>
					</g>
				</g>
			</g>
			<g id="line2d_19">
				<g>
					<g>
						<path id="mcb0005524f_1_" class="st3" d="M22.3,336.7h-4"/>
					</g>
				</g>
			</g>
			<g id="text_7">
				<g transform="translate(33.186875 220.966875)scale(0.18 -0.18)">
					<g>
						<path id="DejaVuSans-31_1_" d="M-1613.5-662.5h16.1v55.6l-17.5-3.5v9l17.4,3.5h9.9v-64.6h16.1v-8.3h-42V-662.5z"/>
					</g>
				</g>
			</g>
		</g>
		<g id="ytick_3">
			<g id="line2d_20">
				<g>
					<g>
						<path id="m728421d6d4_2_" class="st3" d="M-247.7,282.7h4"/>
					</g>
				</g>
			</g>
			<g id="line2d_21">
				<g>
					<g>
						<path id="mcb0005524f_2_" class="st3" d="M22.3,282.7h-4"/>
					</g>
				</g>
			</g>
			<g id="text_8">
				<g transform="translate(32.669375 166.966875)scale(0.18 -0.18)">
					<g>
						<path id="DejaVuSans-32_1_" d="M-1606.7-662.5h34.4v-8.3h-46.3v8.3c3.7,3.9,8.8,9.1,15.3,15.6c6.5,6.5,10.5,10.7,12.2,12.6
							c3.2,3.5,5.4,6.5,6.6,9c1.3,2.5,1.9,4.9,1.9,7.3c0,3.9-1.4,7-4.1,9.5c-2.7,2.4-6.3,3.7-10.6,3.7c-3.1,0-6.4-0.5-9.8-1.6
							c-3.4-1.1-7.1-2.7-11-4.9v10c4,1.6,7.7,2.8,11.1,3.6c3.5,0.8,6.6,1.2,9.5,1.2c7.6,0,13.6-1.9,18.1-5.7
							c4.5-3.8,6.7-8.8,6.7-15.1c0-3-0.6-5.8-1.7-8.5c-1.1-2.7-3.2-5.8-6.1-9.5c-0.8-0.9-3.4-3.7-7.8-8.2
							C-1592.6-648.1-1598.7-654.4-1606.7-662.5"/>
					</g>
				</g>
			</g>
		</g>
		<g id="ytick_4">
			<g id="line2d_22">
				<g>
					<g>
						<path id="m728421d6d4_3_" class="st3" d="M-247.7,228.7h4"/>
					</g>
				</g>
			</g>
			<g id="line2d_23">
				<g>
					<g>
						<path id="mcb0005524f_3_" class="st3" d="M22.3,228.7h-4"/>
					</g>
				</g>
			</g>
			<g id="text_9">
				<g transform="translate(32.3628125 112.966875)scale(0.18 -0.18)">
					<g>
						<path id="DejaVuSans-33_1_" d="M-1585.3-631.5c4.7-1,8.4-3.1,11-6.3c2.7-3.2,4-7.1,4-11.8c0-7.2-2.5-12.8-7.4-16.7
							c-4.9-3.9-12-5.9-21.1-5.9c-3.1,0-6.2,0.3-9.4,0.9c-3.2,0.6-6.6,1.5-10,2.7v9.5c2.7-1.6,5.7-2.8,9-3.6
							c3.3-0.8,6.7-1.2,10.2-1.2c6.2,0,10.9,1.2,14.1,3.7c3.2,2.4,4.9,6,4.9,10.6c0,4.3-1.5,7.7-4.5,10.1c-3,2.4-7.2,3.6-12.6,3.6
							h-8.5v8.1h8.9c4.8,0,8.6,1,11.1,2.9c2.6,1.9,3.9,4.7,3.9,8.4c0,3.7-1.3,6.6-4,8.6c-2.6,2-6.4,3-11.4,3c-2.7,0-5.6-0.3-8.7-0.9
							c-3.1-0.6-6.5-1.5-10.2-2.7v8.8c3.8,1,7.3,1.8,10.5,2.3s6.4,0.8,9.3,0.8c7.5,0,13.4-1.7,17.8-5.1c4.4-3.4,6.5-8,6.5-13.8
							c0-4-1.2-7.5-3.5-10.2C-1577.8-628.5-1581-630.4-1585.3-631.5"/>
					</g>
				</g>
			</g>
		</g>
		<g id="ytick_5">
			<g id="line2d_24">
				<g>
					<g>
						<path id="m728421d6d4_4_" class="st3" d="M-247.7,174.7h4"/>
					</g>
				</g>
			</g>
			<g id="line2d_25">
				<g>
					<g>
						<path id="mcb0005524f_4_" class="st3" d="M22.3,174.7h-4"/>
					</g>
				</g>
			</g>
			<g id="text_10">
				<g transform="translate(31.4375 58.966875)scale(0.18 -0.18)">
					<g>
						<path id="DejaVuSans-34_1_" d="M-1588.1-606.5l-24.9-38.9h24.9V-606.5z M-1590.7-597.9h12.4v-47.5h10.4v-8.2h-10.4v-17.2h-9.8
							v17.2h-32.9v9.5L-1590.7-597.9z"/>
					</g>
				</g>
			</g>
		</g>
	</g>
	<g id="patch_3">
		<path class="st12" d="M-247.7,147.7h270"/>
	</g>
	<g id="patch_4">
		<path class="st12" d="M22.3,417.7v-270"/>
	</g>
	<g id="patch_5">
		<path class="st12" d="M-247.7,417.7h270"/>
	</g>
	<g id="patch_6">
		<path class="st12" d="M-247.7,417.7v-270"/>
	</g>
	<g id="text_11">
		<g transform="translate(134.9994375 22.0)scale(0.216 -0.216)">
			<g>
				<path id="Verdana-Bold-62" d="M-1289.4-530.8c0-8.6-2.4-15.7-7.2-21.1s-10.7-8.2-17.8-8.2c-3.1,0-5.8,0.3-8.1,1
					c-2.3,0.6-4.5,1.6-6.6,2.8l-0.7-2.7h-16.8v76h17.6v-26.9c2.7,2.1,5.5,3.9,8.3,5.2s6.1,2,9.7,2c6.9,0,12.3-2.5,16-7.5
					C-1291.2-515.1-1289.4-522-1289.4-530.8 M-1307.5-531.2c0,4.9-0.8,8.6-2.5,11.3c-1.7,2.6-4.6,4-8.9,4c-1.7,0-3.4-0.3-5.1-0.8
					c-1.8-0.5-3.4-1.2-5-2.2v-27.5c1.3-0.4,2.5-0.8,3.6-0.9c1.1-0.2,2.5-0.3,4.1-0.3c4.7,0,8.1,1.4,10.4,4.1
					C-1308.6-540.7-1307.5-536.6-1307.5-531.2"/>
			</g>
			<g>
				<path id="Verdana-Bold-69" d="M-1259.1-559h-17.6v54.8h17.6V-559z M-1258.6-496.3h-18.6v13.3h18.6V-496.3z"/>
			</g>
			<g>
				<path id="Verdana-Bold-6c" d="M-1224.9-559h-17.6v76h17.6V-559z"/>
			</g>
			<g>
				<path id="Verdana-Bold-69_1_" d="M-1190.7-559h-17.6v54.8h17.6V-559z M-1190.2-496.3h-18.6v13.3h18.6V-496.3z"/>
			</g>
			<g>
				<path id="Verdana-Bold-6e" d="M-1119.1-559h-17.7v27.2c0,2.2-0.1,4.4-0.3,6.6s-0.6,3.8-1.2,4.9c-0.6,1.2-1.6,2.1-2.9,2.6
					c-1.3,0.6-3,0.8-5.3,0.8c-1.6,0-3.2-0.3-4.9-0.8c-1.6-0.5-3.4-1.3-5.3-2.5V-559h-17.6v54.8h17.6v-6c3.1,2.4,6.1,4.3,9,5.6
					c2.9,1.3,6.1,2,9.6,2c5.9,0,10.6-1.7,13.9-5.2s5-8.6,5-15.5V-559z"/>
			</g>
			<g>
				<path id="Verdana-Bold-65" d="M-1048.9-534.8h-40.2c0.3-4.3,1.9-7.6,4.9-9.9c3-2.3,7.4-3.4,13.3-3.4c3.7,0,7.3,0.7,10.8,2
					c3.5,1.3,6.2,2.8,8.3,4.3h2v-14.1c-4-1.6-7.7-2.8-11.2-3.5c-3.5-0.7-7.4-1.1-11.7-1.1c-11,0-19.4,2.5-25.3,7.4
					c-5.9,4.9-8.8,12-8.8,21.1c0,9.1,2.8,16.2,8.3,21.5s13.2,7.9,22.8,7.9c8.9,0,15.6-2.3,20.1-6.8c4.5-4.5,6.8-11,6.8-19.5V-534.8z
					 M-1066.4-524.5c-0.1,3.7-1,6.4-2.8,8.3c-1.7,1.9-4.4,2.8-8,2.8c-3.4,0-6.2-0.9-8.4-2.6c-2.2-1.8-3.4-4.6-3.7-8.5H-1066.4z"/>
			</g>
			<g>
				<path id="Verdana-Bold-61" d="M-1003.3-544.7v11.4c-2.4-0.2-4.9-0.5-7.7-0.8c-2.8-0.3-4.9-0.7-6.3-1.2c-1.8-0.6-3.1-1.4-4-2.4
					c-0.9-1.1-1.4-2.4-1.4-4.2c0-1.1,0.1-2.1,0.3-2.8c0.2-0.7,0.7-1.4,1.5-2c0.8-0.7,1.6-1.1,2.7-1.5c1-0.3,2.7-0.5,4.9-0.5
					c1.8,0,3.5,0.4,5.3,1.1C-1006.2-546.8-1004.7-545.8-1003.3-544.7 M-1003.3-553.2c-0.9-0.7-2.1-1.6-3.5-2.6c-1.4-1-2.7-1.8-4-2.4
					c-1.7-0.8-3.5-1.4-5.4-1.7c-1.9-0.4-3.9-0.6-6.1-0.6c-5.2,0-9.6,1.6-13.1,4.8c-3.5,3.2-5.3,7.3-5.3,12.4c0,4,0.9,7.3,2.7,9.8
					c1.8,2.5,4.3,4.5,7.6,6c3.3,1.5,7.3,2.5,12.1,3.1c4.8,0.6,9.8,1.1,15,1.4v0.3c0,3-1.2,5.1-3.7,6.3c-2.5,1.2-6.1,1.7-10.9,1.7
					c-2.9,0-6-0.5-9.3-1.5c-3.3-1-5.6-1.8-7.1-2.4h-1.6v13.2c1.9,0.5,4.9,1.1,9,1.7c4.2,0.7,8.4,1,12.6,1c10,0,17.2-1.5,21.7-4.6
					c4.4-3.1,6.7-7.9,6.7-14.5V-559h-17.4V-553.2z"/>
			</g>
			<g>
				<path id="Verdana-Bold-72" d="M-930-520.9h-1.6c-0.8,0.3-2,0.5-3.6,0.6c-1.7,0.1-3,0.2-4.1,0.2c-2.5,0-4.7-0.2-6.6-0.5
					c-1.9-0.3-4-0.9-6.2-1.7V-559h-17.6v54.8h17.6v-8c3.9,3.3,7.2,5.5,10.1,6.6c2.9,1.1,5.5,1.6,7.9,1.6c0.6,0,1.3,0,2.1,0
					c0.8,0,1.5-0.1,2-0.2V-520.9z"/>
			</g>
		</g>
	</g>
</g>
</svg>
