<?xml version="1.0" encoding="utf-8"?>
<!-- Generator: Adobe Illustrator 19.0.0, SVG Export Plug-In . SVG Version: 6.00 Build 0)  -->
<svg version="1.1"
	 id="svg2" xmlns:dc="http://purl.org/dc/elements/1.1/" xmlns:cc="http://creativecommons.org/ns#" xmlns:rdf="http://www.w3.org/1999/02/22-rdf-syntax-ns#" xmlns:svg="http://www.w3.org/2000/svg" xmlns:sodipodi="http://sodipodi.sourceforge.net/DTD/sodipodi-0.dtd" xmlns:inkscape="http://www.inkscape.org/namespaces/inkscape" inkscape:version="0.48.3.1 r9886" sodipodi:docname="Hsl-hsv_models.svg"
	 xmlns="http://www.w3.org/2000/svg" xmlns:xlink="http://www.w3.org/1999/xlink" x="0px" y="0px" viewBox="428 -24.7 413.9 368.6"
	 style="enable-background:new 428 -24.7 413.9 368.6;" xml:space="preserve">
<style type="text/css">
	.st0{fill:none;stroke:#000000;stroke-width:1.5;stroke-linecap:round;stroke-linejoin:round;}
	.st1{fill:none;stroke:#000000;stroke-width:1.5;stroke-linejoin:round;}
	.st2{fill:none;stroke:#000000;stroke-width:4;}
	.st3{fill:none;stroke:#595959;stroke-width:4;}
	.st4{fill:#595959;}
</style>
<sodipodi:namedview  inkscape:cy="201.99189" inkscape:cx="414.03648" inkscape:zoom="0.6675088" showgrid="false" guidetolerance="10" gridtolerance="10" objecttolerance="10" borderopacity="1" pagecolor="#ffffff" bordercolor="#666666" id="namedview608" inkscape:current-layer="svg2" inkscape:window-maximized="1" inkscape:window-y="-4" inkscape:window-x="-4" inkscape:object-nodes="true" inkscape:window-height="664" inkscape:window-width="1280" inkscape:pageopacity="0" inkscape:pageshadow="2">
	</sodipodi:namedview>
<image style="overflow:visible;enable-background:new    ;" width="1654" height="1542" id="image292" xlink:href="67962A4F.png"  transform="matrix(0.2396 0 0 0.2391 445.7092 -24.7337)">
</image>
<g id="g294">
	<path id="path296" inkscape:connector-curvature="0" class="st0" d="M608.8,126.2c-23.4-2.6-45.5-7.9-63.8-15.9
		c-54.8-24-55-63.3-0.5-87.8c54.5-24.5,143.2-24.9,198-1c37.1,16.3,49.2,39.5,36.2,60.5"/>
	<polyline id="polyline298" class="st0" points="644.2,264.9 644.2,66.7 778.6,82 780.1,279.9 	"/>
	<polyline id="polyline300" class="st1" points="644.2,264.9 644.2,66.7 608.8,126.2 608.5,326.1 	"/>
</g>
<g id="g302">
	<g id="g304">
		<path id="path306" inkscape:connector-curvature="0" class="st2" d="M539.1,74.5c-0.3-0.9-0.5-1.2-0.6-1.7
			c-6.3-38.5,23.7-60.5,81.6-52.4c4.3,0.6,8.7,1.4,13.2,2.3"/>
		<path id="path308" inkscape:connector-curvature="0" d="M538.6,73c2.6-5.3,9.8-9.9,15.1-11.9c-5.4,7.9-9.3,17.2-9.9,26.9
			c-6.3-7.3-15.4-11.7-24.4-15C525.3,71.4,532.8,70.4,538.6,73L538.6,73z"/>
	</g>
</g>
<g id="g310">
	<path id="path312" inkscape:connector-curvature="0" d="M491-23.6v11.3h13v-11.3h3.5v27H504V-9.3h-13V3.4h-3.5v-27L491-23.6
		L491-23.6z"/>
	<path id="path314" inkscape:connector-curvature="0" d="M529.7-1.9c0,2,0,3.8,0.2,5.3h-3.1l-0.2-3.2h-0.1c-0.9,1.6-3,3.6-6.4,3.6
		c-3,0-6.7-1.7-6.7-8.5V-16h3.5v10.7c0,3.7,1.2,6.2,4.3,6.2c2.4,0,4-1.6,4.6-3.2c0.2-0.5,0.3-1.1,0.3-1.8V-16h3.5V-1.9z"/>
	<path id="path316" inkscape:connector-curvature="0" d="M537.5-5.7c0.1,4.8,3.1,6.7,6.6,6.7c2.5,0,4.1-0.4,5.4-1l0.6,2.5
		c-1.2,0.6-3.4,1.2-6.5,1.2c-6,0-9.5-4-9.5-9.8s3.4-10.4,9.1-10.4c6.4,0,8,5.5,8,9.1c0,0.7,0,1.2-0.1,1.6L537.5-5.7L537.5-5.7z
		 M547.8-8.2c0-2.2-0.9-5.7-4.9-5.7c-3.6,0-5.1,3.2-5.4,5.7H547.8z"/>
</g>
<line id="line322" class="st3" x1="793.1" y1="265.4" x2="657.8" y2="250"/>
<path id="path324" inkscape:connector-curvature="0" class="st4" d="M791.5,265.2c-3.7-4.6-4.7-13.1-4.2-18.8
	c4.8,8.3,11.5,15.8,20,20.6c-9.4,2.6-17.2,8.8-24.1,15.5C784.3,276.5,786.7,269.3,791.5,265.2L791.5,265.2z"/>
<g id="g326">
	<g id="g328">
		<line id="line330" class="st2" x1="480.7" y1="125.6" x2="480.7" y2="264.5"/>
		<path id="path332" inkscape:connector-curvature="0" d="M480.7,127.2c-4.2,4.2-12.4,6.2-18.2,6.3c7.7-5.7,14.4-13.2,18.2-22.2
			c3.6,9,10.7,16.1,18.2,22.2C492.8,133.1,485.3,131.5,480.7,127.2z"/>
	</g>
</g>
<g id="g334">
	<path id="path336" inkscape:connector-curvature="0" d="M664.2,315.5c1.6,1,3.8,1.8,6.2,1.8c3.6,0,5.6-1.9,5.6-4.6
		c0-2.5-1.4-4-5.1-5.3c-4.4-1.6-7.1-3.9-7.1-7.7c0-4.2,3.5-7.3,8.7-7.3c2.7,0,4.8,0.6,5.9,1.3l-1,2.8c-0.8-0.5-2.6-1.3-5.1-1.3
		c-3.7,0-5.1,2.2-5.1,4c0,2.5,1.6,3.8,5.4,5.2c4.6,1.8,6.8,4,6.8,7.9c0,4.2-3,7.8-9.4,7.8c-2.6,0-5.4-0.8-6.9-1.8L664.2,315.5
		L664.2,315.5z"/>
	<path id="path338" inkscape:connector-curvature="0" d="M697.9,315.1c0,1.7,0.1,3.3,0.3,4.6h-3.2l-0.3-2.4h-0.1
		c-1.1,1.5-3.2,2.9-5.9,2.9c-3.9,0-5.9-2.8-5.9-5.6c0-4.7,4.2-7.2,11.6-7.2V307c0-1.6-0.4-4.5-4.4-4.4c-1.8,0-3.7,0.5-5.1,1.4
		l-0.8-2.4c1.6-1,4-1.7,6.4-1.7c5.9,0,7.4,4,7.4,7.9L697.9,315.1L697.9,315.1z M694.5,309.9c-3.8-0.1-8.2,0.6-8.2,4.4
		c0,2.3,1.5,3.4,3.3,3.4c2.6,0,4.2-1.6,4.8-3.2c0.1-0.4,0.2-0.8,0.2-1.1L694.5,309.9L694.5,309.9z"/>
	<path id="path340" inkscape:connector-curvature="0" d="M707.7,295.8v4.6h5v2.7h-5v10.4c0,2.4,0.7,3.8,2.6,3.8c1,0,1.5-0.1,2-0.2
		l0.2,2.7c-0.7,0.2-1.8,0.5-3.1,0.5c-1.6,0-3-0.6-3.8-1.5c-1-1.1-1.4-2.8-1.4-5.1v-10.6h-3v-2.7h3v-3.6L707.7,295.8L707.7,295.8z"/>
	<path id="path342" inkscape:connector-curvature="0" d="M732.9,314.4c0,2,0,3.8,0.2,5.3h-3.1l-0.2-3.2h-0.1c-0.9,1.6-3,3.6-6.4,3.6
		c-3,0-6.7-1.7-6.7-8.5v-11.3h3.5v10.7c0,3.7,1.2,6.2,4.3,6.2c2.4,0,4-1.6,4.6-3.2c0.2-0.5,0.3-1.1,0.3-1.8v-11.8h3.5L732.9,314.4
		L732.9,314.4z"/>
	<path id="path344" inkscape:connector-curvature="0" d="M738.7,306.4c0-2.3,0-4.2-0.2-6h3.1l0.2,3.8h0.1c0.9-2.6,3-4.2,5.4-4.2
		c0.4,0,0.6,0,1,0.1v3.3c-0.4-0.1-0.7-0.1-1.2-0.1c-2.5,0-4.2,1.8-4.7,4.5c-0.1,0.5-0.1,1.1-0.1,1.6v10.3h-3.5L738.7,306.4
		L738.7,306.4z"/>
	<path id="path346" inkscape:connector-curvature="0" d="M765.2,315.1c0,1.7,0.1,3.3,0.3,4.6h-3.2l-0.3-2.4h-0.1
		c-1.1,1.5-3.2,2.9-5.9,2.9c-3.9,0-5.9-2.8-5.9-5.6c0-4.7,4.2-7.2,11.6-7.2V307c0-1.6-0.4-4.5-4.4-4.4c-1.8,0-3.7,0.5-5.1,1.4
		l-0.8-2.4c1.6-1,4-1.7,6.4-1.7c5.9,0,7.4,4,7.4,7.9L765.2,315.1L765.2,315.1z M761.8,309.9c-3.8-0.1-8.2,0.6-8.2,4.4
		c0,2.3,1.5,3.4,3.3,3.4c2.6,0,4.2-1.6,4.8-3.2c0.1-0.4,0.2-0.8,0.2-1.1L761.8,309.9L761.8,309.9z"/>
	<path id="path348" inkscape:connector-curvature="0" d="M775,295.8v4.6h5v2.7h-5v10.4c0,2.4,0.7,3.8,2.6,3.8c1,0,1.5-0.1,2-0.2
		l0.2,2.7c-0.7,0.2-1.8,0.5-3.1,0.5c-1.6,0-3-0.6-3.8-1.5c-1-1.1-1.4-2.8-1.4-5.1v-10.6h-3v-2.7h3v-3.6L775,295.8L775,295.8z"/>
	<path id="path350" inkscape:connector-curvature="0" d="M787.9,295c0,1.2-0.8,2.2-2.2,2.2c-1.3,0-2.1-1-2.1-2.2s0.9-2.2,2.2-2.2
		C787,292.8,787.9,293.7,787.9,295z M784,319.8v-19.4h3.5v19.4L784,319.8L784,319.8z"/>
	<path id="path352" inkscape:connector-curvature="0" d="M810.9,309.9c0,7.2-5,10.3-9.6,10.3c-5.2,0-9.3-3.8-9.3-10
		c0-6.4,4.3-10.2,9.6-10.2C807.1,300,810.9,304,810.9,309.9z M795.5,310.1c0,4.2,2.4,7.4,5.8,7.4c3.4,0,5.9-3.2,5.9-7.5
		c0-3.3-1.6-7.4-5.8-7.4C797.3,302.6,795.5,306.5,795.5,310.1L795.5,310.1z"/>
	<path id="path354" inkscape:connector-curvature="0" d="M815.3,305.6c0-2,0-3.6-0.2-5.2h3.1l0.2,3.2h0.1c1-1.8,3.2-3.6,6.4-3.6
		c2.7,0,6.8,1.6,6.8,8.2v11.5h-3.5v-11.2c0-3.1-1.2-5.7-4.5-5.7c-2.3,0-4.1,1.6-4.7,3.6c-0.2,0.4-0.2,1-0.2,1.6v11.6h-3.5
		L815.3,305.6L815.3,305.6z"/>
</g>
<g id="g356">
	<path id="path358" inkscape:connector-curvature="0" d="M456.4,233.4l-27,8.8v-3.8l13.3-4.2c3.6-1.1,6.9-2.1,10.1-2.9v-0.1
		c-3.1-0.8-6.5-1.8-10-3.1l-13.3-4.6v-3.7l27,9.6L456.4,233.4L456.4,233.4z"/>
	<path id="path360" inkscape:connector-curvature="0" d="M451.8,204.8c1.7,0,3.3-0.1,4.6-0.3v3.2L454,208v0.1
		c1.5,1.1,2.9,3.2,2.9,5.9c0,3.9-2.8,5.9-5.6,5.9c-4.7,0-7.2-4.2-7.2-11.6h-0.4c-1.6,0-4.5,0.4-4.4,4.4c0,1.8,0.5,3.7,1.4,5.1
		l-2.4,0.8c-1-1.6-1.7-4-1.7-6.4c0-5.9,4-7.4,7.9-7.4L451.8,204.8L451.8,204.8z M446.6,208.2c-0.1,3.8,0.6,8.2,4.4,8.2
		c2.3,0,3.4-1.5,3.4-3.3c0-2.6-1.6-4.2-3.2-4.8c-0.4-0.1-0.8-0.2-1.1-0.2L446.6,208.2L446.6,208.2z"/>
	<path id="path362" inkscape:connector-curvature="0" d="M428,199.1v-3.5h28.4v3.5H428L428,199.1z"/>
	<path id="path364" inkscape:connector-curvature="0" d="M451.1,173.5c2,0,3.8,0,5.3-0.2v3.1l-3.2,0.2v0.1c1.6,0.9,3.6,3,3.6,6.4
		c0,3-1.7,6.7-8.5,6.7h-11.3v-3.5h10.7c3.7,0,6.2-1.2,6.2-4.3c0-2.4-1.6-4-3.2-4.6c-0.5-0.2-1.1-0.3-1.8-0.3h-11.8v-3.5H451.1z"/>
	<path id="path366" inkscape:connector-curvature="0" d="M447.4,165.7c4.8-0.1,6.7-3.1,6.7-6.6c0-2.5-0.4-4.1-1-5.4l2.5-0.6
		c0.6,1.2,1.2,3.4,1.2,6.5c0,6-4,9.5-9.8,9.5s-10.4-3.4-10.4-9.1c0-6.4,5.5-8,9.1-8c0.7,0,1.2,0,1.6,0.1V165.7L447.4,165.7z
		 M444.9,155.4c-2.2,0-5.7,0.9-5.7,4.9c0,3.6,3.2,5.1,5.7,5.4V155.4L444.9,155.4z"/>
</g>
</svg>
