<?xml version="1.0" encoding="UTF-8" standalone="no"?>
<!DOCTYPE svg PUBLIC "-//W3C//DTD SVG 1.1//EN" "http://www.w3.org/Graphics/SVG/1.1/DTD/svg11.dtd">
<!-- Generiert durch Microsoft Visio, SVG Export chart1.svg Page-1 -->
<svg xmlns="http://www.w3.org/2000/svg" xmlns:xlink="http://www.w3.org/1999/xlink" xmlns:ev="http://www.w3.org/2001/xml-events"
		width="8.26772in" height="11.6929in" viewBox="0 0 595.276 841.89" xml:space="preserve" color-interpolation-filters="sRGB"
		class="st16">
	<style type="text/css">
	<![CDATA[
		.st1 {fill:#ffffff;stroke:#b8b8ba;stroke-linecap:round;stroke-linejoin:round;stroke-width:0.75}
		.st2 {fill:#d3d3d4;stroke:#b8b8ba;stroke-linecap:round;stroke-linejoin:round;stroke-width:0.75}
		.st3 {fill:#5b595f;font-family:Arial;font-size:1.00001em;font-stretch:semi-expanded}
		.st4 {fill:#feffff;stroke:#b8b8ba;stroke-dasharray:3.5,2.5;stroke-linecap:round;stroke-linejoin:round;stroke-width:0.5}
		.st5 {fill:#5b595f;font-family:Arial;font-size:0.833336em}
		.st6 {font-size:1em}
		.st7 {fill:#f8f9f7;stroke:#cbd4c2;stroke-linecap:round;stroke-linejoin:round;stroke-opacity:0.4;stroke-width:0.75}
		.st8 {fill:#dee3d8;stroke:#cbd4c1;stroke-linecap:round;stroke-linejoin:round;stroke-width:0.75}
		.st9 {fill:#889a73;font-family:Arial;font-size:0.833336em;font-stretch:semi-expanded}
		.st10 {fill:none;stroke:none;stroke-linecap:round;stroke-linejoin:round;stroke-width:0.75}
		.st11 {fill:#ffffff;stroke:#b9d4e0;stroke-linecap:round;stroke-linejoin:round;stroke-width:0.75}
		.st12 {fill:#d4e4eb;stroke:#b9d4e0;stroke-linecap:round;stroke-linejoin:round;stroke-width:0.75}
		.st13 {fill:#5d9bb0;font-family:Arial;font-size:0.833336em;font-stretch:semi-expanded}
		.st14 {marker-end:url(#mrkr6-142);stroke:#b8b8ba;stroke-linecap:round;stroke-linejoin:round;stroke-width:0.5}
		.st15 {fill:#b8b8ba;fill-opacity:1;stroke:#b8b8ba;stroke-opacity:1;stroke-width:0.16556291390728}
		.st16 {fill:none;fill-rule:evenodd;font-size:12px;overflow:visible;stroke-linecap:square;stroke-miterlimit:3}
	]]>
	</style>

	<defs id="Patterns_And_Gradients">
		<linearGradient id="grad0-11" x1="0" y1="0" x2="1" y2="0" gradientTransform="rotate(90 0.5 0.5)">
			<stop offset="0.01" stop-color="#f7f7f7" stop-opacity="1"/>
			<stop offset="0.5" stop-color="#eaeaea" stop-opacity="1"/>
			<stop offset="1" stop-color="#f7f7f7" stop-opacity="1"/>
		</linearGradient>
		<linearGradient id="grad0-37" x1="0" y1="0" x2="1" y2="0" gradientTransform="rotate(90 0.5 0.5)">
			<stop offset="0.01" stop-color="#f5f8f3" stop-opacity="1"/>
			<stop offset="0.5" stop-color="#e9ede4" stop-opacity="1"/>
			<stop offset="1" stop-color="#f5f8f3" stop-opacity="1"/>
		</linearGradient>
		<linearGradient id="grad0-92" x1="0" y1="0" x2="1" y2="0" gradientTransform="rotate(90 0.5 0.5)">
			<stop offset="0.01" stop-color="#ffffff" stop-opacity="1"/>
			<stop offset="0.5" stop-color="#fefefe" stop-opacity="1"/>
			<stop offset="1" stop-color="#ffffff" stop-opacity="1"/>
		</linearGradient>
	</defs>
	<defs id="Markers">
		<g id="lend6">
			<path d="M 2 1 L 0 0 L 2.01237 -1.00641 C 2.32921 -0.372874 2.32921 0.37287 2.01238 1.0064 " style="stroke:none"/>
		</g>
		<marker id="mrkr6-142" class="st15" refX="-13.59" orient="auto" markerUnits="strokeWidth" overflow="visible">
			<use xlink:href="#lend6" transform="scale(-6.04,-6.04) "/>
		</marker>
	</defs>
	<g>
		<title>Zeichenblatt-1</title>
		<g id="group1-1" transform="translate(198.425,-540.283)">
			<title>Klassisch</title>
			<g id="group2-2">
				<title>Tabelle.2</title>
				<g id="shape3-3" transform="translate(2.83465,2.83465)">
					<title>Tabelle.3</title>
				</g>
				<g id="shape2-5">
					<path d="M0 841.89 L99.07 841.89 L198.14 841.89 L198.14 701.86 L99.07 701.86 L0 701.86 L0 841.89 Z" class="st1"/>
				</g>
			</g>
			<g id="group4-7">
				<title>Tabelle.4</title>
				<desc>Note</desc>
				<g id="shape5-8">
					<title>Tabelle.5</title>
				</g>
				<g id="shape4-12">
					<path d="M0 841.89 L99.07 841.89 L198.14 841.89 L198.14 816.38 L0 816.38 L0 841.89 Z" class="st2"/>
					<text x="85.13" y="832.73" class="st3">Note</text>				</g>
			</g>
		</g>
		<g id="shape6-15" transform="translate(206.929,-637.795)">
			<title>Rechteck</title>
			<desc>Field A: Germany</desc>
			<path d="M0 841.89 L85.04 841.89 L85.04 813.54 L0 813.54 L0 841.89 Z" class="st4"/>
			<text x="25.57" y="824.72" class="st5">Field A: <tspan x="21.96" dy="1.2em" class="st6">Germany</tspan></text>		</g>
		<g id="shape7-19" transform="translate(231.247,-574.299)">
			<title>Rechteck.7</title>
			<desc>Field B: German</desc>
			<path d="M0 841.89 L85.04 841.89 L85.04 813.54 L0 813.54 L0 841.89 Z" class="st4"/>
			<text x="25.57" y="824.72" class="st5">Field B: <tspan x="24.46" dy="1.2em" class="st6">German</tspan></text>		</g>
		<g id="shape8-23" transform="translate(303.024,-609.449)">
			<title>Rechteck.8</title>
			<desc>Field C: Berlin</desc>
			<path d="M0 841.89 L85.04 841.89 L85.04 813.54 L0 813.54 L0 841.89 Z" class="st4"/>
			<text x="25.29" y="824.72" class="st5">Field C: <tspan x="29.74" dy="1.2em" class="st6">Berlin</tspan></text>		</g>
		<g id="group58-27" transform="translate(24.0945,-298.984)">
			<title>Gürtel</title>
			<g id="group59-28">
				<title>Tabelle.59</title>
				<g id="shape60-29" transform="translate(2.83465,2.83465)">
					<title>Tabelle.60</title>
				</g>
				<g id="shape59-31">
					<path d="M0 841.89 L81.5 841.89 L162.99 841.89 L162.99 742.32 L81.5 742.32 L0 742.32 L0 841.89 Z" class="st7"/>
				</g>
			</g>
			<g id="group61-33" transform="translate(-3.18898,-75.1181)">
				<title>Tabelle.61</title>
				<desc>Card 1</desc>
				<g id="shape62-34">
					<title>Tabelle.62</title>
				</g>
				<g id="shape61-38">
					<path d="M0 841.89 L84.69 841.89 L169.37 841.89 L169.37 820.63 L84.69 820.63 L0 820.63 L0 841.89 Z" class="st8"/>
					<text x="68.18" y="834.26" class="st9">Card 1</text>				</g>
			</g>
		</g>
		<g id="group63-41" transform="translate(215.433,-298.984)">
			<title>Gürtel.63</title>
			<g id="group64-42">
				<title>Tabelle.64</title>
				<g id="shape65-43" transform="translate(2.83465,2.83465)">
					<title>Tabelle.65</title>
				</g>
				<g id="shape64-45">
					<path d="M0 841.89 L81.5 841.89 L162.99 841.89 L162.99 742.32 L81.5 742.32 L0 742.32 L0 841.89 Z" class="st7"/>
				</g>
			</g>
			<g id="group66-47" transform="translate(-3.18898,-75.1181)">
				<title>Tabelle.66</title>
				<desc>Card 2</desc>
				<g id="shape67-48">
					<title>Tabelle.67</title>
				</g>
				<g id="shape66-51">
					<path d="M0 841.89 L84.69 841.89 L169.37 841.89 L169.37 820.63 L84.69 820.63 L0 820.63 L0 841.89 Z" class="st8"/>
					<text x="68.18" y="834.26" class="st9">Card 2</text>				</g>
			</g>
		</g>
		<g id="group68-54" transform="translate(406.772,-298.984)">
			<title>Gürtel.68</title>
			<g id="group69-55">
				<title>Tabelle.69</title>
				<g id="shape70-56" transform="translate(2.83465,2.83465)">
					<title>Tabelle.70</title>
				</g>
				<g id="shape69-58">
					<path d="M0 841.89 L81.5 841.89 L162.99 841.89 L162.99 742.32 L81.5 742.32 L0 742.32 L0 841.89 Z" class="st7"/>
				</g>
			</g>
			<g id="group71-60" transform="translate(-3.18898,-75.1181)">
				<title>Tabelle.71</title>
				<desc>Card 3</desc>
				<g id="shape72-61">
					<title>Tabelle.72</title>
				</g>
				<g id="shape71-64">
					<path d="M0 841.89 L84.69 841.89 L169.37 841.89 L169.37 820.63 L84.69 820.63 L0 820.63 L0 841.89 Z" class="st8"/>
					<text x="68.18" y="834.26" class="st9">Card 3</text>				</g>
			</g>
		</g>
		<g id="shape55-67" transform="translate(43.2283,-314.752)">
			<title>Tabelle.55</title>
			<desc>Q: What is the capital of Germany A: Berlin</desc>
			<rect x="0" y="793.701" width="124.724" height="48.189" class="st10"/>
			<text x="9.28" y="802.8" class="st5">Q: What is the capital of <tspan x="41.8" dy="1.2em" class="st6">Germany  </tspan><tspan
						x="43.47" dy="2.4em" class="st6">A: Berlin</tspan></text>		</g>
		<g id="shape56-72" transform="translate(234.567,-314.752)">
			<title>Tabelle.56</title>
			<desc>Q: What is the language spoken in Germany A: German</desc>
			<rect x="0" y="793.701" width="124.724" height="48.189" class="st10"/>
			<text x="8.72" y="802.8" class="st5">Q: What is the language <tspan x="19.01" dy="1.2em" class="st6">spoken in Germany  </tspan><tspan
						x="38.19" dy="2.4em" class="st6">A: German</tspan></text>		</g>
		<g id="shape57-77" transform="translate(425.906,-314.752)">
			<title>Tabelle.57</title>
			<desc>Q: Of which country is Berlin the capital? A: Germany</desc>
			<rect x="0" y="793.701" width="124.724" height="48.189" class="st10"/>
			<text x="13.46" y="802.8" class="st5">Q: Of which country is <tspan x="22.62" dy="1.2em" class="st6">Berlin the capital?  </tspan><tspan
						x="35.69" dy="2.4em" class="st6">A: Germany</tspan></text>		</g>
		<g id="group10-82" transform="translate(24.0945,-426.898)">
			<title>Klassisch.10</title>
			<g id="group11-83">
				<title>Tabelle.11</title>
				<g id="shape12-84" transform="translate(2.83465,2.83465)">
					<title>Tabelle.12</title>
				</g>
				<g id="shape11-86">
					<path d="M0 841.89 L81.5 841.89 L162.99 841.89 L162.99 756.85 L81.5 756.85 L0 756.85 L0 841.89 Z" class="st11"/>
				</g>
			</g>
			<g id="group13-88" transform="translate(-820.63,841.89) rotate(-90)">
				<title>Tabelle.13</title>
				<desc>Template 1</desc>
				<g id="shape14-89">
					<title>Tabelle.14</title>
				</g>
				<g id="shape13-93">
					<path d="M0 841.89 L85.04 841.89 L85.04 820.63 L42.52 820.63 L0 820.63 L0 841.89 Z" class="st12"/>
					<text x="15.01" y="834.26" class="st13">Template 1</text>				</g>
			</g>
		</g>
		<g id="group16-96" transform="translate(215.433,-426.898)">
			<title>Klassisch.16</title>
			<g id="group17-97">
				<title>Tabelle.17</title>
				<g id="shape18-98" transform="translate(2.83465,2.83465)">
					<title>Tabelle.18</title>
				</g>
				<g id="shape17-100">
					<path d="M0 841.89 L81.5 841.89 L162.99 841.89 L162.99 756.85 L81.5 756.85 L0 756.85 L0 841.89 Z" class="st11"/>
				</g>
			</g>
			<g id="group19-102" transform="translate(-820.63,841.89) rotate(-90)">
				<title>Tabelle.19</title>
				<desc>Template 2</desc>
				<g id="shape20-103">
					<title>Tabelle.20</title>
				</g>
				<g id="shape19-106">
					<path d="M0 841.89 L85.04 841.89 L85.04 820.63 L42.52 820.63 L0 820.63 L0 841.89 Z" class="st12"/>
					<text x="15.01" y="834.26" class="st13">Template 2</text>				</g>
			</g>
		</g>
		<g id="group29-109" transform="translate(406.772,-426.898)">
			<title>Klassisch.29</title>
			<g id="group30-110">
				<title>Tabelle.30</title>
				<g id="shape31-111" transform="translate(2.83465,2.83465)">
					<title>Tabelle.31</title>
				</g>
				<g id="shape30-113">
					<path d="M0 841.89 L81.5 841.89 L162.99 841.89 L162.99 756.85 L81.5 756.85 L0 756.85 L0 841.89 Z" class="st11"/>
				</g>
			</g>
			<g id="group32-115" transform="translate(-820.63,841.89) rotate(-90)">
				<title>Tabelle.32</title>
				<desc>Template 3</desc>
				<g id="shape33-116">
					<title>Tabelle.33</title>
				</g>
				<g id="shape32-119">
					<path d="M0 841.89 L85.04 841.89 L85.04 820.63 L42.52 820.63 L0 820.63 L0 841.89 Z" class="st12"/>
					<text x="15.01" y="834.26" class="st13">Template 3</text>				</g>
			</g>
		</g>
		<g id="shape15-122" transform="translate(53.8583,-445.323)">
			<title>Tabelle.15</title>
			<desc>Q: What is the capital of {{Field A}} A: {{Field C}}</desc>
			<rect x="0" y="793.701" width="124.724" height="48.189" class="st10"/>
			<text x="9.28" y="802.8" class="st5">Q: What is the capital of <tspan x="40.12" dy="1.2em" class="st6">{{Field A}}  </tspan><tspan
						x="33.73" dy="2.4em" class="st6">A: {{Field C}}</tspan></text>		</g>
		<g id="shape21-127" transform="translate(245.197,-445.323)">
			<title>Tabelle.21</title>
			<desc>Q: What is the language spoken in {{Field A}} A: {{Field B}}</desc>
			<rect x="0" y="793.701" width="124.724" height="48.189" class="st10"/>
			<text x="8.72" y="802.8" class="st5">Q: What is the language <tspan x="17.33" dy="1.2em" class="st6">spoken in {{Field A}}  </tspan><tspan
						x="34.01" dy="2.4em" class="st6">A: {{Field B}}</tspan></text>		</g>
		<g id="shape34-132" transform="translate(436.535,-445.323)">
			<title>Tabelle.34</title>
			<desc>Q: Of which country is {{Field C}} the capital? A: {{Field A}}</desc>
			<rect x="0" y="793.701" width="124.724" height="48.189" class="st10"/>
			<text x="13.46" y="802.8" class="st5">Q: Of which country is <tspan x="12.88" dy="1.2em" class="st6">{{Field C}} the capital?  </tspan><tspan
						x="34.01" dy="2.4em" class="st6">A: {{Field A}}</tspan></text>		</g>
		<g id="shape75-137" transform="translate(247.961,-540.283)">
			<title>Dynamischer Verbinder</title>
			<path d="M0 841.89 L0 856.06 L-142.37 856.06 L-142.37 863.44" class="st14"/>
		</g>
		<g id="shape76-143" transform="translate(304.299,-540.283)">
			<title>Dynamischer Verbinder.76</title>
			<path d="M-6.8 841.89 L-6.8 856.06 L-7.37 856.06 L-7.37 863.44" class="st14"/>
		</g>
		<g id="shape77-148" transform="translate(347.031,-540.283)">
			<title>Dynamischer Verbinder.77</title>
			<path d="M0 841.89 L0 856.06 L141.24 856.06 L141.24 863.44" class="st14"/>
		</g>
		<g id="shape78-153" transform="translate(98.5039,-426.898)">
			<title>Dynamischer Verbinder.78</title>
			<path d="M7.09 841.89 L7.09 863.44" class="st14"/>
		</g>
		<g id="shape79-158" transform="translate(289.843,-426.898)">
			<title>Dynamischer Verbinder.79</title>
			<path d="M7.09 841.89 L7.09 863.44" class="st14"/>
		</g>
		<g id="shape80-163" transform="translate(481.181,-426.898)">
			<title>Dynamischer Verbinder.80</title>
			<path d="M7.09 841.89 L7.09 863.44" class="st14"/>
		</g>
	</g>
</svg>
